<svg height="512pt" viewBox="0 -8 512.00675 512" width="512pt" xmlns="http://www.w3.org/2000/svg"><path d="m88 432.003906c-13.230469 0-24-10.769531-24-24 0-13.234375 10.769531-24 24-24 4.425781 0 8 3.574219 8 8 0 4.421875-3.574219 8-8 8-4.414062 0-8 3.582032-8 8 0 4.414063 3.585938 8 8 8 4.425781 0 8 3.574219 8 8 0 4.421875-3.574219 8-8 8zm0 0"/><path d="m231.992188 463.996094c-4.425782 0-8-3.578125-8-8 0-4.425782 3.574218-8 8-8 13.230468 0 24-10.769532 24-24 0-13.234375-10.769532-24-24-24-4.425782 0-8-3.578125-8-8 0-4.425782 3.574218-8 8-8 22.054687 0 40 17.941406 40 40 0 22.054687-17.945313 40-40 40zm0 0"/><path d="m232 400.003906h-144c-4.425781 0-8-3.578125-8-8 0-4.425781 3.574219-8 8-8h144c4.425781 0 8 3.574219 8 8 0 4.421875-3.574219 8-8 8zm0 0"/><path d="m88 464.003906c-4.414062 0-8-3.578125-8-8 0-4.417968 3.574219-8 8-8l143.992188-.007812c4.414062 0 8 3.574218 8 8 0 4.414062-3.578126 8-8 8zm0 0"/><path d="m200 432.003906h-112c-4.425781 0-8-3.578125-8-8 0-4.425781 3.574219-8 8-8h112c4.425781 0 8 3.574219 8 8 0 4.421875-3.574219 8-8 8zm0 0"/><path d="m200 432.003906c-4.425781 0-8-3.578125-8-8v-32.007812c0-4.425782 3.574219-8 8-8s8 3.574218 8 8v32.007812c0 4.421875-3.574219 8-8 8zm0 0"/><path d="m88 464.003906c-30.871094 0-56-25.128906-56-56s25.128906-56 56-56c4.425781 0 8 3.574219 8 8 0 4.421875-3.574219 8-8 8-22.054688 0-40 17.945313-40 40 0 22.054688 17.945312 40 40 40 4.425781 0 8 3.574219 8 8 0 4.421875-3.574219 8-8 8zm0 0"/><path d="m232 368.003906h-144c-4.425781 0-8-3.578125-8-8 0-4.425781 3.574219-8 8-8h144c4.425781 0 8 3.574219 8 8 0 4.421875-3.574219 8-8 8zm0 0"/><path d="m232 496.003906c-4.425781 0-8-3.578125-8-8 0-4.425781 3.574219-8 8-8 30.871094 0 56-25.128906 56-56s-25.128906-56-56-56c-4.425781 0-8-3.578125-8-8 0-4.425781 3.574219-8 8-8 39.703125 0 72 32.296875 72 72s-32.296875 72-72 72zm0 0"/><path d="m88 496.003906c-48.519531 0-88-39.480468-88-88 0-48.519531 39.480469-88 88-88 4.425781 0 8 3.574219 8 8 0 4.421875-3.574219 8-8 8-39.703125 0-72 32.296875-72 72s32.296875 72 72 72c4.425781 0 8 3.574219 8 8 0 4.421875-3.574219 8-8 8zm0 0"/><path d="m232 496.003906h-144c-4.425781 0-8-3.578125-8-8 0-4.425781 3.574219-8 8-8h144c4.425781 0 8 3.574219 8 8 0 4.421875-3.574219 8-8 8zm0 0"/><path d="m240 336.003906h-152c-4.425781 0-8-3.578125-8-8 0-4.425781 3.574219-8 8-8h152c4.425781 0 8 3.574219 8 8 0 4.421875-3.574219 8-8 8zm0 0"/><path d="m8 352.003906c-4.425781 0-8-3.578125-8-8 0-48.519531 39.480469-88 88-88 4.425781 0 8 3.574219 8 8 0 4.421875-3.574219 8-8 8-39.703125 0-72 32.296875-72 72 0 4.421875-3.574219 8-8 8zm0 0"/><path d="m8 96.003906c-4.425781 0-8-3.578125-8-8 0-48.519531 39.480469-87.99999975 88-87.99999975 4.425781 0 8 3.57421875 8 7.99999975 0 4.421875-3.574219 8-8 8-39.703125 0-72 32.296875-72 72 0 4.421875-3.574219 8-8 8zm0 0"/><path d="m496 16.003906h-408c-4.425781 0-8-3.578125-8-8 0-4.425781 3.574219-7.99999975 8-7.99999975h408c4.425781 0 8 3.57421875 8 7.99999975 0 4.421875-3.574219 8-8 8zm0 0"/><path d="m496 336.003906h-256c-4.425781 0-8-3.578125-8-8 0-4.425781 3.574219-8 8-8h256c4.425781 0 8 3.574219 8 8 0 4.421875-3.574219 8-8 8zm0 0"/><path d="m8 416.003906c-4.425781 0-8-3.578125-8-8v-320c0-4.425781 3.574219-8 8-8s8 3.574219 8 8v320c0 4.421875-3.574219 8-8 8zm0 0"/><path d="m296 432.003906c-4.425781 0-8-3.578125-8-8v-96c0-4.425781 3.574219-8 8-8s8 3.574219 8 8v96c0 4.421875-3.574219 8-8 8zm0 0"/><path d="m495.992188 336.003906c-1.199219 0-2.425782-.273437-3.566407-.839844-3.953125-1.976562-5.554687-6.785156-3.578125-10.738281l8-16c1.984375-3.949219 6.777344-5.527343 10.738282-3.574219 3.949218 1.976563 5.550781 6.785157 3.574218 10.734376l-8 16c-1.40625 2.800781-4.230468 4.417968-7.167968 4.417968zm0 0"/><path d="m504.007812 320.003906c-2.9375 0-5.761718-1.617187-7.167968-4.425781l-8-16c-1.976563-3.949219-.375-8.757813 3.574218-10.734375 3.953126-1.96875 8.761719-.375 10.738282 3.574219l8 16c1.976562 3.953125.375 8.761719-3.578125 10.738281-1.140625.574219-2.367188.847656-3.566407.847656zm0 0"/><path d="m495.992188 304.003906c-1.199219 0-2.425782-.273437-3.566407-.839844-3.953125-1.976562-5.554687-6.785156-3.578125-10.738281l8-16c1.984375-3.949219 6.777344-5.542969 10.738282-3.574219 3.949218 1.976563 5.550781 6.785157 3.574218 10.734376l-8 16c-1.40625 2.800781-4.230468 4.417968-7.167968 4.417968zm0 0"/><path d="m504.007812 288.003906c-2.9375 0-5.761718-1.617187-7.167968-4.425781l-8-16c-1.976563-3.949219-.375-8.757813 3.574218-10.734375 3.953126-1.960938 8.761719-.375 10.738282 3.574219l8 16c1.976562 3.953125.375 8.761719-3.578125 10.738281-1.140625.574219-2.367188.847656-3.566407.847656zm0 0"/><path d="m495.992188 272.003906c-1.199219 0-2.425782-.273437-3.566407-.839844-3.953125-1.976562-5.554687-6.785156-3.578125-10.738281l8-16c1.984375-3.949219 6.777344-5.535156 10.738282-3.574219 3.949218 1.976563 5.550781 6.785157 3.574218 10.734376l-8 16c-1.40625 2.800781-4.230468 4.417968-7.167968 4.417968zm0 0"/><path d="m504.007812 256.003906c-2.9375 0-5.761718-1.617187-7.167968-4.425781l-8-16c-1.976563-3.949219-.375-8.757813 3.574218-10.734375 3.953126-1.960938 8.761719-.375 10.738282 3.574219l8 16c1.976562 3.953125.375 8.761719-3.578125 10.738281-1.140625.574219-2.367188.847656-3.566407.847656zm0 0"/><path d="m495.992188 240.003906c-1.199219 0-2.425782-.273437-3.566407-.839844-3.953125-1.976562-5.554687-6.785156-3.578125-10.738281l8-16c1.984375-3.949219 6.777344-5.527343 10.738282-3.574219 3.949218 1.976563 5.550781 6.785157 3.574218 10.734376l-8 16c-1.40625 2.800781-4.230468 4.417968-7.167968 4.417968zm0 0"/><path d="m504.007812 224.003906c-2.9375 0-5.761718-1.617187-7.167968-4.425781l-8-16c-1.976563-3.949219-.375-8.757813 3.574218-10.734375 3.953126-1.96875 8.761719-.375 10.738282 3.574219l8 16c1.976562 3.953125.375 8.761719-3.578125 10.738281-1.140625.574219-2.367188.847656-3.566407.847656zm0 0"/><path d="m495.992188 208.003906c-1.199219 0-2.425782-.273437-3.566407-.839844-3.953125-1.976562-5.554687-6.785156-3.578125-10.738281l8-16c1.984375-3.949219 6.777344-5.542969 10.738282-3.574219 3.949218 1.976563 5.550781 6.785157 3.574218 10.734376l-8 16c-1.40625 2.800781-4.230468 4.417968-7.167968 4.417968zm0 0"/><path d="m504.007812 192.003906c-2.9375 0-5.761718-1.617187-7.167968-4.425781l-8-16c-1.976563-3.949219-.375-8.757813 3.574218-10.734375 3.953126-1.960938 8.761719-.382812 10.738282 3.574219l8 16c1.976562 3.953125.375 8.761719-3.578125 10.738281-1.140625.574219-2.367188.847656-3.566407.847656zm0 0"/><path d="m495.992188 176.003906c-1.199219 0-2.425782-.273437-3.566407-.839844-3.953125-1.976562-5.554687-6.785156-3.578125-10.738281l8-16c1.984375-3.949219 6.777344-5.535156 10.738282-3.574219 3.949218 1.976563 5.550781 6.785157 3.574218 10.734376l-8 16c-1.40625 2.800781-4.230468 4.417968-7.167968 4.417968zm0 0"/><path d="m504.007812 160.003906c-2.9375 0-5.761718-1.617187-7.167968-4.425781l-8-16c-1.976563-3.949219-.375-8.757813 3.574218-10.734375 3.953126-1.960938 8.761719-.375 10.738282 3.574219l8 16c1.976562 3.953125.375 8.761719-3.578125 10.738281-1.140625.574219-2.367188.847656-3.566407.847656zm0 0"/><path d="m495.992188 144.003906c-1.199219 0-2.425782-.273437-3.566407-.839844-3.953125-1.976562-5.554687-6.785156-3.578125-10.738281l8-16c1.984375-3.949219 6.777344-5.535156 10.738282-3.574219 3.949218 1.976563 5.550781 6.785157 3.574218 10.734376l-8 16c-1.40625 2.800781-4.230468 4.417968-7.167968 4.417968zm0 0"/><path d="m504.007812 128.003906c-2.9375 0-5.761718-1.617187-7.167968-4.425781l-8-16c-1.976563-3.949219-.375-8.757813 3.574218-10.734375 3.953126-1.96875 8.761719-.375 10.738282 3.574219l8 16c1.976562 3.953125.375 8.761719-3.578125 10.738281-1.140625.574219-2.367188.847656-3.566407.847656zm0 0"/><path d="m495.992188 112.003906c-1.199219 0-2.425782-.273437-3.566407-.839844-3.953125-1.976562-5.554687-6.785156-3.578125-10.738281l8-16c1.984375-3.949219 6.777344-5.542969 10.738282-3.574219 3.949218 1.976563 5.550781 6.785157 3.574218 10.734376l-8 16c-1.40625 2.800781-4.230468 4.417968-7.167968 4.417968zm0 0"/><path d="m504.007812 96.003906c-2.9375 0-5.761718-1.617187-7.167968-4.425781l-8-16c-1.976563-3.949219-.375-8.757813 3.574218-10.734375 3.953126-1.960938 8.761719-.375 10.738282 3.574219l8 16c1.976562 3.953125.375 8.761719-3.578125 10.738281-1.140625.574219-2.367188.847656-3.566407.847656zm0 0"/><path d="m495.992188 80.003906c-1.199219 0-2.425782-.273437-3.566407-.839844-3.953125-1.976562-5.554687-6.785156-3.578125-10.738281l8-16c1.984375-3.949219 6.777344-5.535156 10.738282-3.574219 3.949218 1.976563 5.550781 6.785157 3.574218 10.734376l-8 16c-1.40625 2.800781-4.230468 4.417968-7.167968 4.417968zm0 0"/><path d="m504.007812 64.003906c-2.9375 0-5.761718-1.617187-7.167968-4.425781l-8-16c-1.976563-3.949219-.375-8.757813 3.574218-10.734375 3.953126-1.960938 8.761719-.375 10.738282 3.574219l8 16c1.976562 3.953125.375 8.761719-3.578125 10.738281-1.140625.574219-2.367188.847656-3.566407.847656zm0 0"/><path d="m495.992188 48.003906c-1.199219 0-2.425782-.273437-3.566407-.839844-3.953125-1.976562-5.554687-6.785156-3.578125-10.738281l8-16c1.984375-3.949219 6.777344-5.535156 10.738282-3.574219 3.949218 1.976563 5.550781 6.785157 3.574218 10.734376l-8 16c-1.40625 2.800781-4.230468 4.417968-7.167968 4.417968zm0 0"/><path d="m504.007812 32.003906c-2.9375 0-5.761718-1.617187-7.167968-4.425781l-8-16c-1.976563-3.949219-.375-8.757813 3.574218-10.734375 3.953126-1.953125 8.761719-.375 10.738282 3.574219l8 16c1.976562 3.953125.375 8.761719-3.578125 10.738281-1.140625.574219-2.367188.847656-3.566407.847656zm0 0"/><path d="m496 272.003906h-408c-4.425781 0-8-3.578125-8-8 0-4.425781 3.574219-8 8-8h408c4.425781 0 8 3.574219 8 8 0 4.421875-3.574219 8-8 8zm0 0"/><path d="m8 256.003906c-4.425781 0-8-3.578125-8-8 0-48.519531 39.480469-88 88-88 4.425781 0 8 3.574219 8 8 0 4.421875-3.574219 8-8 8-39.703125 0-72 32.296875-72 72 0 4.421875-3.574219 8-8 8zm0 0"/><path d="m496 176.003906h-408c-4.425781 0-8-3.578125-8-8 0-4.425781 3.574219-8 8-8h408c4.425781 0 8 3.574219 8 8 0 4.421875-3.574219 8-8 8zm0 0"/><path d="m8 160.003906c-4.425781 0-8-3.578125-8-8 0-48.519531 39.480469-88 88-88 4.425781 0 8 3.574219 8 8 0 4.421875-3.574219 8-8 8-39.703125 0-72 32.296875-72 72 0 4.421875-3.574219 8-8 8zm0 0"/><path d="m496 80.003906h-408c-4.425781 0-8-3.578125-8-8 0-4.425781 3.574219-8 8-8h408c4.425781 0 8 3.574219 8 8 0 4.421875-3.574219 8-8 8zm0 0"/><path d="m440 336.003906c-4.425781 0-8-3.578125-8-8v-320c0-4.425781 3.574219-7.99999975 8-7.99999975s8 3.57421875 8 7.99999975v320c0 4.421875-3.574219 8-8 8zm0 0"/><path d="m344 336.003906c-4.425781 0-8-3.578125-8-8v-320c0-4.425781 3.574219-7.99999975 8-7.99999975s8 3.57421875 8 7.99999975v320c0 4.421875-3.574219 8-8 8zm0 0"/><path d="m248 336.003906c-4.425781 0-8-3.578125-8-8v-320c0-4.425781 3.574219-7.99999975 8-7.99999975s8 3.57421875 8 7.99999975v320c0 4.421875-3.574219 8-8 8zm0 0"/><path d="m152 336.003906c-4.425781 0-8-3.578125-8-8v-320c0-4.425781 3.574219-7.99999975 8-7.99999975s8 3.57421875 8 7.99999975v320c0 4.421875-3.574219 8-8 8zm0 0"/><path d="m56 342.675781c-4.425781 0-8-3.578125-8-8v-320c0-4.425781 3.574219-8 8-8s8 3.574219 8 8v320c0 4.421875-3.574219 8-8 8zm0 0"/></svg>