<svg height="100" width="266" xmlns="http://www.w3.org/2000/svg"><g fill="#fff"><path d="m140.02 49.597c-1.784 0-3.07.585-4.374 1.18v13.487c1.25.119 1.965.119 3.15.119 4.283 0 4.87-1.961 4.87-4.7v-6.44c0-2.022-.67-3.646-3.645-3.646zm-28.437-.736c-2.971 0-3.65 1.631-3.65 3.65v1.135h7.295v-1.134c0-2.02-.678-3.651-3.645-3.651zm-55.09 14.037c0 1.598.754 2.428 2.418 2.428 1.785 0 2.841-.582 4.144-1.18v-3.199h-3.903c-1.847 0-2.66.344-2.66 1.951zm111.19-13.301c-2.975 0-4.006 1.624-4.006 3.645v7.38c0 2.026 1.031 3.655 4.007 3.655 2.967 0 4.006-1.629 4.006-3.656v-7.379c0-2.021-1.039-3.645-4.006-3.645zm-125.773 21.575h-8.747v-21.174h-4.373v-7.298h4.372v-4.38c0-5.953 2.467-9.493 9.479-9.493h5.838v7.298h-3.65c-2.73 0-2.91 1.02-2.91 2.923l-.01 3.652h6.61l-.773 7.297h-5.836v21.174zm29.897.055h-7.29l-.316-1.844c-3.33 1.844-6.3 2.142-8.26 2.142-5.347 0-8.194-3.572-8.194-8.511 0-5.828 3.32-7.909 9.262-7.909h6.047v-1.26c0-2.973-.34-3.847-4.915-3.847h-7.48l.731-7.297h8.176c10.038 0 12.24 3.171 12.24 11.203v17.323zm24.793-20.694c-4.537-.778-5.84-.949-8.023-.949-3.921 0-5.106.866-5.106 4.195v6.3c0 3.33 1.185 4.198 5.106 4.198 2.183 0 3.486-.173 8.023-.955v7.117c-3.974.891-6.563 1.125-8.751 1.125-9.392 0-13.126-4.939-13.126-12.074v-5.11c0-7.141 3.734-12.089 13.126-12.089 2.188 0 4.777.235 8.751 1.13v7.113zm27.376 8.957h-16.042v.588c0 3.33 1.186 4.2 5.107 4.2 3.524 0 5.675-.174 10.204-.956v7.117c-4.368.891-6.644 1.125-10.93 1.125-9.392 0-13.127-4.939-13.127-12.074v-5.844c0-6.242 2.771-11.356 12.396-11.356s12.392 5.054 12.392 11.356zm28.437.135c0 6.896-1.97 11.926-13.911 11.926-4.312 0-6.84-.38-11.6-1.112v-39.419l8.745-1.46v13.79c1.89-.703 4.336-1.059 6.563-1.059 8.746 0 10.203 3.92 10.203 10.222v7.113zm28.033.15c0 5.95-2.456 11.72-12.732 11.72-10.281 0-12.783-5.77-12.783-11.72v-5.744c0-5.952 2.502-11.722 12.783-11.722 10.276 0 12.732 5.77 12.732 11.722zm28.014 0c0 5.95-2.459 11.72-12.733 11.72-10.282 0-12.784-5.77-12.784-11.72v-5.744c0-5.952 2.502-11.722 12.784-11.722 10.274 0 12.733 5.77 12.733 11.722zm28.749 11.397h-9.48l-8.016-13.383v13.383h-8.748v-40.153l8.748-1.46v25.85l8.017-12.708h9.479l-8.752 13.867zm-41.512-21.575c-2.97 0-4.002 1.624-4.002 3.645v7.38c0 2.026 1.032 3.655 4.002 3.655 2.967 0 4.017-1.629 4.017-3.656v-7.379c0-2.021-1.05-3.645-4.017-3.645z"/><path d="m242.201 66.178c1.473 0 2.647 1.2 2.647 2.7 0 1.524-1.174 2.712-2.658 2.712-1.475 0-2.672-1.188-2.672-2.711 0-1.5 1.197-2.701 2.672-2.701zm-.01.42c-1.187 0-2.159 1.021-2.159 2.28 0 1.284.972 2.292 2.17 2.292 1.197.012 2.154-1.008 2.154-2.28s-.957-2.292-2.155-2.292zm-.504 3.853h-.48v-3.013c.251-.036.491-.07.85-.07.457 0 .755.095.937.226.177.133.273.336.273.623 0 .398-.262.637-.585.734v.024c.262.048.442.287.503.73.07.469.142.649.19.746h-.503c-.071-.097-.143-.373-.204-.77-.07-.382-.264-.527-.648-.527h-.333zm0-1.668h.347c.394 0 .729-.144.729-.517 0-.264-.19-.528-.729-.528-.157 0-.265.012-.347.024z"/></g></svg>