<svg enable-background="new 0 0 362.008 362.008" viewBox="0 0 362.008 362.008" xmlns="http://www.w3.org/2000/svg"><path d="m163.837 210.564c-.605-.389-1.835-1.121-1.835-2.954v-165.012c0-23.489-19.109-42.598-42.596-42.598-23.488 0-42.597 19.109-42.597 42.598v165.178c0 1.542-1.237 2.405-1.847 2.797-23.472 15.073-37.794 41.009-37.794 69.195 0 45.348 36.892 82.24 82.238 82.24 45.347 0 82.238-36.893 82.238-82.24 0-28.192-14.327-54.131-37.807-69.204zm-44.431 136.444c-37.075 0-67.238-30.164-67.238-67.24 0-24.893 13.667-47.643 35.669-59.37l.923-.492s3.049-1.213 3.049-6.087c0-42.806 0-171.221 0-171.221 0-15.218 12.379-27.598 27.597-27.598 15.217 0 27.596 12.38 27.596 27.598v171.282c0 4.813 3.235 6.125 3.235 6.125l.737.393c22.002 11.727 35.67 34.476 35.67 59.37 0 37.076-30.163 67.24-67.238 67.24z"/><path d="m132.65 248.141c-.737-.279-2.244-.739-2.244-3.239v-169.416c0-6.075-4.925-11-11-11s-11 4.925-11 11v169.415c0 2.417-1.655 3.012-2.463 3.323-14.045 5.421-24.037 19.063-24.037 34.998 0 20.678 16.822 37.5 37.5 37.5s37.5-16.822 37.5-37.5c0-16.016-10.096-29.717-24.256-35.081z"/><path d="m233.338 45.486h59.035c3.314 0 6-2.687 6-6s-2.686-6-6-6h-59.035c-3.313 0-6 2.687-6 6 0 3.314 2.686 6 6 6z"/><path d="m233.338 84.152h79.035c3.314 0 6-2.687 6-6s-2.686-6-6-6h-79.035c-3.313 0-6 2.687-6 6 0 3.314 2.686 6 6 6z"/><path d="m233.338 122.818h59.035c3.314 0 6-2.687 6-6s-2.686-6-6-6h-59.035c-3.313 0-6 2.687-6 6s2.686 6 6 6z"/><path d="m312.373 161.486c3.314 0 6-2.686 6-6 0-3.313-2.686-6-6-6h-79.035c-3.313 0-6 2.687-6 6 0 3.314 2.687 6 6 6z"/><path d="m322.21 269.372-34.715-44.919c-2.428-3.14-5.941-4.941-9.64-4.941-3.698 0-7.212 1.802-9.64 4.942l-34.715 44.917c-2.735 3.539-3.372 7.47-1.745 10.784 1.628 3.314 5.126 5.216 9.6 5.216h8.186c1.084 0 2 .916 2 2v49.281c0 7.72 6.28 14 14 14h22.695c7.72 0 14-6.28 14-14v-49.281c0-1.084.916-2 2-2h10.119c4.474 0 7.972-1.901 9.6-5.216 1.627-3.314.99-7.245-1.745-10.783zm-13.511 3.999c-1.115 0-4.463 0-4.463 0-7.72 0-14 6.28-14 14v49.281c0 1.084-.916 2-2 2h-22.695c-1.084 0-2-.916-2-2v-49.281c0-7.72-6.28-14-14-14 0 0-2.084 0-2.779 0-1.141 0-.709-.617-.709-.617l30.106-38.953s.838-1.046 1.697-1.046c.906 0 1.75 1.112 1.75 1.112l29.999 38.818c-.001.001.547.686-.906.686z"/></svg>