<svg xmlns="http://www.w3.org/2000/svg" viewBox="0 0 92 92"><defs><style>.a,.c{fill:none;}.a{stroke:#000;stroke-width:2px;}.b{stroke:none;}</style></defs><g transform="translate(-1154 -2294)"><g transform="translate(1170 2310)"><path d="M0,262.3c1.382-1.334,2.765-2.656,4.135-3.99,5.032-4.947,13.763-13.484,13.8-13.508.679.691,1.358,1.37,2.061,2.086-5.711,5.614-10.016,9.8-15.812,15.485l7.736,7.882c.643-.691,1.261-1.37,1.952-2.11-.8-.764-1.746-1.661-2.656-2.534.582-.606,1.043-1.079,1.528-1.576.909.9,1.831,1.819,2.753,2.728.546-.57,1.043-1.1,1.661-1.746-1.334-1.237-2.753-2.522-4.135-3.808.631-.667,1.1-1.152,1.54-1.613,1.419,1.346,2.8,2.668,4.2,4,.679-.7,1.382-1.431,2.243-2.316-.934-.8-1.916-1.649-2.9-2.486.618-.643,1.079-1.116,1.613-1.661.922.97,1.831,1.9,2.765,2.886.57-.606,1.067-1.128,1.613-1.71-1.31-1.346-2.643-2.716-3.989-4.086.521-.485.994-.934,1.455-1.37,1.322,1.285,2.68,2.631,4.1,4.014.655-.728,1.916-2.122,1.916-2.122l2.413,2.074s-11.568,11.3-18.116,17.7c-.243-.291-.449-.558-.679-.8Q5.736,268.155.243,262.577A.838.838,0,0,0,0,262.419Z" transform="translate(0 -215.115)"/><path d="M.1,9.931C3.3,6.621,6.49,3.335,9.728,0c.121.109.291.255.449.4,7.07,6.888,23.258,22.615,30.352,29.527q6.494,6.33,12.963,12.66a2.354,2.354,0,0,1,.57.812q2.947,7.749,5.869,15.5a4.546,4.546,0,0,1,.146.521c-1.14-.473-2.207-.922-3.262-1.358q-6.148-2.6-12.3-5.19a2.57,2.57,0,0,1-.776-.521C32.428,41.35,11.777,21.293.452,10.307.318,10.174.2,10.04.1,9.931ZM51.976,47.716c-1.346-.206-2.571-.388-3.9-.594.315,1.261.606,2.4.922,3.626-1.746-.073-3.407-.133-5.069-.206-.012.061-.036.121-.049.182a6.706,6.706,0,0,0,1.37,1.079c2.74,1.2,5.505,2.34,8.282,3.48a.8.8,0,0,0,.691-.146c.606-.558,1.14-1.188,1.746-1.746a.748.748,0,0,0,.182-.946c-1.079-2.813-2.122-5.639-3.213-8.452a5.4,5.4,0,0,0-.812-1.128c-.073.024-.146.061-.206.085C51.927,44.515,51.951,46.079,51.976,47.716ZM6.757,12.732c1.977-2.037,3.977-4.111,5.869-6.051-.958-.946-1.977-1.94-2.874-2.813C7.824,5.857,5.836,7.906,3.871,9.931,4.8,10.841,5.824,11.823,6.757,12.732Z" transform="translate(-0.088 0)"/><path d="M283.112,12.2c-.1-.109-.146-.17-.194-.23q-4.22-4.311-8.452-8.61c-1.079-1.1-2.146-2.231-3.213-3.359h-.121c-.388.424-.776.861-1.176,1.261q-6.348,6.239-12.72,12.478c-.812.8-2.607,2.631-3.335,3.371.667.679,1.322,1.358,2.025,2.074C260.654,14.539,266.414,8.876,271.18,4.2c2.619,2.668,5.19,5.287,7.591,7.749-.812.934-1.564,1.807-2.316,2.68-1.3-1.273-2.522-2.474-3.783-3.7-.449.5-.909.994-1.394,1.528,1.164,1.188,2.365,2.425,3.432,3.529-.534.631-1.006,1.188-1.528,1.819-.861-.837-1.649-1.6-2.413-2.34-.449.424-.922.885-1.492,1.431.825.752,1.637,1.5,2.3,2.134-.776.861-1.467,1.625-2.146,2.389l-3.747-3.638-1.6,1.6c1.3,1.188,2.571,2.365,3.771,3.456-.582.631-1.079,1.164-1.685,1.819-.788-.849-1.54-1.673-2.268-2.462-.546.534-1.019.982-1.431,1.382.8.8,1.589,1.6,2.377,2.4l-1.079,1.055,2.074,2.074,1.067-1.043h0Q275.005,20.166,283.112,12.2Z" transform="translate(-223.112)"/></g><g class="a" transform="translate(1154 2294)"><circle class="b" cx="46" cy="46" r="46"/><circle class="c" cx="46" cy="46" r="45"/></g></g></svg>