<svg height="114.3" width="700" xmlns="http://www.w3.org/2000/svg"><g fill="#f7d917"><path d="m0 35.2c0-35.2 35.2-35.2 35.2-35.2h35.2c35.2 0 35.2 35.2 35.2 35.2h-26.5c0-8.8-8.8-8.8-8.8-8.8h-35.2c-8.8 0-8.8 8.8-8.8 8.8zm0 17.6v26.4c0 35.2 35.2 35.2 35.2 35.2h35.2c35.2 0 35.2-35.2 35.2-35.2h-26.5c0 8.8-8.8 8.8-8.8 8.8h-35.2c-8.8 0-8.8-8.8-8.8-8.8v-26.4zm594.5-17.6c0-35.2 35.1-35.2 35.1-35.2h35.2c35.2 0 35.2 35.2 35.2 35.2h-26.4c0-8.8-8.8-8.8-8.8-8.8h-35.2c-8.8 0-8.8 8.8-8.8 8.8zm0 17.6v26.4c0 35.2 35.2 35.2 35.2 35.2h35.2c35.2 0 35.1-35.3 35.1-35.3h-26.4c0 8.8-8.8 8.8-8.8 8.8h-35.2c-8.8 0-8.8-8.8-8.8-8.8v-26.3zm-158.3-17.6c0-35.2 35.2-35.2 35.2-35.2h35.2c35.2 0 35.2 35.2 35.2 35.2h-26.4c0-8.8-8.8-8.8-8.8-8.8h-35.2c-8.8 0-8.8 8.8-8.8 8.8zm0 17.6c0 26.4 26.4 26.4 26.4 26.4h48.4c4.4 0 4.4 4.4 4.4 4.4s0 4.4-4.4 4.4h-74.7v26.4h79.1c26.4 0 26.4-26.4 26.4-26.4v-8.8c0-26.4-26.4-26.4-26.4-26.4zm-114.3-17.6c0-35.2 35.1-35.2 35.1-35.2h35.2c35.2 0 35.2 35.2 35.2 35.2h-26.4c0-8.8-8.8-8.8-8.8-8.8h-35.2c-8.8 0-8.8 8.8-8.8 8.8zm0 17.6c0 26.4 26.4 26.4 26.4 26.4h48.4c4.4 0 4.4 4.4 4.4 4.4s0 4.4-4.4 4.4h-74.7v26.4h79.1c26.3 0 26.4-26.4 26.4-26.4v-8.8c0-26.4-26.5-26.4-26.5-26.4zm-88 61.5v-61.5h-26.4v61.5"/><path d="m313.1 35.2v79.1h-26.4v-35.2h-35.2v-26.3h35.2v-17.6c0-8.8-8.8-8.8-8.8-8.8h-35.2c-8.8 0-8.8 8.8-8.8 8.8h-26.4c0-35.2 35.2-35.2 35.2-35.2h35.2c35.2 0 35.2 35.2 35.2 35.2zm-198.8-35.2h26.4v35.2h-26.4zm26.4 87.9v-35.1h-26.4v61.5h84.4v-26.4zm409.9 26.4v-6.8h13.4v-.1l-13.4-5v-7.2l15.3 6.6 19.7-7.4v7.7l-12.2 4 2.9 1.4h9.2v6.8zm0-20.7v-15.4h7.4v8.6h6v-8.1h7.1v8.1h6.9v-9h7.4v15.7h-34.8zm0-16.2v-7.2l26.3-2.7v-.1l-26.3-2.7v-7.2l34.9 5.6v8.7zm0-21.3v-6.8h27.5v-8.3h7.4v15.1z"/><path d="m550.6 34.8v-8.5l34.9-6.3v7.2l-6.1.7v5.4l6.1.7v7.2zm7.2-4.3 14.8 1.9v-3.8zm-7.2-11.9v-10.6c0-5.2 3.9-7.1 9.3-7.1 4.7 0 7.7 1.3 8.3 4.4h.1c.4-3.2 3.2-4.3 7.8-4.3h3c1.8 0 4.1 0 4.8-.3.4-.2.7-.3 1.1-.8h.5v7.2c-1.8.7-5.2.7-6.7.7h-2.3c-4 0-5 .6-5 2.2v1.8h14v6.8zm14.8-6.7v-1.3c0-1.9-1.7-2.8-4.2-2.8-2.9 0-4.1.8-4.1 2.9v1.3h8.3z"/></g></svg>