<svg xmlns="http://www.w3.org/2000/svg" width="700" height="114.3"><style>.st0{fill:#f7d917}</style><path class="st0" d="M0 35.2C0 0 35.2 0 35.2 0h35.2c35.2 0 35.2 35.2 35.2 35.2H79.1c0-8.8-8.8-8.8-8.8-8.8H35.1c-8.8 0-8.8 8.8-8.8 8.8H0zm0 17.6v26.4c0 35.2 35.2 35.2 35.2 35.2h35.2c35.2 0 35.2-35.2 35.2-35.2H79.1c0 8.8-8.8 8.8-8.8 8.8H35.1c-8.8 0-8.8-8.8-8.8-8.8V52.8H0zm594.5-17.6C594.5 0 629.6 0 629.6 0h35.2C700 0 700 35.2 700 35.2h-26.4c0-8.8-8.8-8.8-8.8-8.8h-35.2c-8.8 0-8.8 8.8-8.8 8.8h-26.3zm0 17.6v26.4c0 35.2 35.2 35.2 35.2 35.2h35.2c35.2 0 35.1-35.3 35.1-35.3h-26.4c0 8.8-8.8 8.8-8.8 8.8h-35.2c-8.8 0-8.8-8.8-8.8-8.8V52.8h-26.3zM436.2 35.2C436.2 0 471.4 0 471.4 0h35.2c35.2 0 35.2 35.2 35.2 35.2h-26.4c0-8.8-8.8-8.8-8.8-8.8h-35.2c-8.8 0-8.8 8.8-8.8 8.8h-26.4zm0 17.6c0 26.4 26.4 26.4 26.4 26.4H511c4.4 0 4.4 4.4 4.4 4.4s0 4.4-4.4 4.4h-74.7v26.4h79.1c26.4 0 26.4-26.4 26.4-26.4v-8.8c0-26.4-26.4-26.4-26.4-26.4h-79.2zM321.9 35.2C321.9 0 357 0 357 0h35.2c35.2 0 35.2 35.2 35.2 35.2H401c0-8.8-8.8-8.8-8.8-8.8H357c-8.8 0-8.8 8.8-8.8 8.8h-26.3zm0 17.6c0 26.4 26.4 26.4 26.4 26.4h48.4c4.4 0 4.4 4.4 4.4 4.4s0 4.4-4.4 4.4H322v26.4h79.1c26.3 0 26.4-26.4 26.4-26.4v-8.8c0-26.4-26.5-26.4-26.5-26.4h-79.1zm-88 61.5V52.8h-26.4v61.5"/><path class="st0" d="M313.1 35.2v79.1h-26.4V79.1h-35.2V52.8h35.2V35.2c0-8.8-8.8-8.8-8.8-8.8h-35.2c-8.8 0-8.8 8.8-8.8 8.8h-26.4C207.5 0 242.7 0 242.7 0h35.2c35.2 0 35.2 35.2 35.2 35.2zM114.3 0h26.4v35.2h-26.4zm26.4 87.9V52.8h-26.4v61.5h84.4V87.9zm409.9 26.4v-6.8H564v-.1l-13.4-5v-7.2l15.3 6.6 19.7-7.4v7.7l-12.2 4 2.9 1.4h9.2v6.8h-34.9zm0-20.7V78.2h7.4v8.6h6v-8.1h7.1v8.1h6.9v-9h7.4v15.7h-34.8zm0-16.2v-7.2l26.3-2.7v-.1l-26.3-2.7v-7.2l34.9 5.6v8.7l-34.9 5.6zm0-21.3v-6.8h27.5V41h7.4v15.1h-34.9z"/><path class="st0" d="M550.6 34.8v-8.5l34.9-6.3v7.2l-6.1.7v5.4l6.1.7v7.2l-34.9-6.4zm7.2-4.3l14.8 1.9v-3.8l-14.8 1.9zm-7.2-11.9V8c0-5.2 3.9-7.1 9.3-7.1 4.7 0 7.7 1.3 8.3 4.4h.1c.4-3.2 3.2-4.3 7.8-4.3h3c1.8 0 4.1 0 4.8-.3.4-.2.7-.3 1.1-.8h.5v7.2c-1.8.7-5.2.7-6.7.7h-2.3c-4 0-5 .6-5 2.2v1.8h14v6.8h-34.9zm14.8-6.7v-1.3c0-1.9-1.7-2.8-4.2-2.8-2.9 0-4.1.8-4.1 2.9V12h8.3z"/></svg>