<!-- Generator: Adobe Illustrator 19.0.1, SVG Export Plug-In  -->
<svg version="1.1"
	 xmlns="http://www.w3.org/2000/svg" xmlns:xlink="http://www.w3.org/1999/xlink" xmlns:a="http://ns.adobe.com/AdobeSVGViewerExtensions/3.0/"
	 x="0px" y="0px" width="700px" height="114.3px" viewBox="0 0 700 114.3" style="enable-background:new 0 0 700 114.3;"
	 xml:space="preserve">
<style type="text/css">
	.st0{fill:#f7d917;}
</style>
<defs>
</defs>
<path class="st0" d="M0,35.2C0,0,35.2,0,35.2,0s0,0,35.2,0s35.2,35.2,35.2,35.2H79.1c0-8.8-8.8-8.8-8.8-8.8s-26.4,0-35.2,0
	s-8.8,8.8-8.8,8.8H0z"/>
<path class="st0" d="M0,52.8c0,0,0,0,0,26.4c0,35.2,35.2,35.2,35.2,35.2s0,0,35.2,0s35.2-35.2,35.2-35.2H79.1c0,8.8-8.8,8.8-8.8,8.8
	s-26.4,0-35.2,0s-8.8-8.8-8.8-8.8V52.8H0z"/>
<path class="st0" d="M594.5,35.2C594.5,0,629.6,0,629.6,0s0,0,35.2,0S700,35.2,700,35.2h-26.4c0-8.8-8.8-8.8-8.8-8.8s-26.4,0-35.2,0
	s-8.8,8.8-8.8,8.8H594.5z"/>
<path class="st0" d="M594.5,52.8c0,0,0,0,0,26.4c0,35.2,35.2,35.2,35.2,35.2s0,0,35.2,0S700,79.1,700,79.1h-26.4
	c0,8.8-8.8,8.8-8.8,8.8s-26.4,0-35.2,0s-8.8-8.8-8.8-8.8V52.8H594.5z"/>
<path class="st0" d="M436.2,35.2C436.2,0,471.4,0,471.4,0s0,0,35.2,0s35.2,35.2,35.2,35.2h-26.4c0-8.8-8.8-8.8-8.8-8.8
	s-26.4,0-35.2,0c-8.8,0-8.8,8.8-8.8,8.8H436.2z"/>
<path class="st0" d="M436.2,52.8c0,26.4,26.4,26.4,26.4,26.4s44,0,48.4,0s4.4,4.4,4.4,4.4s0,4.4-4.4,4.4s-74.7,0-74.7,0v26.4
	c0,0,52.8,0,79.1,0c26.4,0,26.4-26.4,26.4-26.4s0,17.6,0-8.8s-26.4-26.4-26.4-26.4H436.2z"/>
<path class="st0" d="M321.9,35.2C321.9,0,357,0,357,0s0,0,35.2,0s35.2,35.2,35.2,35.2H401c0-8.8-8.8-8.8-8.8-8.8s-26.4,0-35.2,0
	s-8.8,8.8-8.8,8.8H321.9z"/>
<path class="st0" d="M321.9,52.8c0,26.4,26.4,26.4,26.4,26.4s44,0,48.4,0s4.4,4.4,4.4,4.4s0,4.4-4.4,4.4s-74.7,0-74.7,0v26.4
	c0,0,52.8,0,79.1,0s26.4-26.4,26.4-26.4s0,17.6,0-8.8S401,52.8,401,52.8H321.9z"/>
<polyline class="st0" points="233.9,114.3 233.9,52.8 207.5,52.8 207.5,114.3 "/>
<path class="st0" d="M313.1,35.2v79.1h-26.4V79.1h-35.2V52.8h35.2V35.2c0-8.8-8.8-8.8-8.8-8.8s-26.4,0-35.2,0
	c-8.8,0-8.8,8.8-8.8,8.8h-26.4C207.5,0,242.7,0,242.7,0s0,0,35.2,0C313.1,0,313.1,35.2,313.1,35.2z"/>
<rect x="114.3" y="0" class="st0" width="26.4" height="35.2"/>
<polygon class="st0" points="140.7,87.9 140.7,52.8 114.3,52.8 114.3,114.3 198.7,114.3 198.7,87.9 "/>
<g>
	<path class="st0" d="M550.6,114.3v-6.8H564v-0.1l-13.4-5v-7.2l15.3,6.6l19.7-7.4v7.7l-12.2,4l2.9,1.4h9.2v6.8H550.6z"/>
	<path class="st0" d="M550.6,93.6V78.2h7.4v8.6h6v-8.1h7.1v8.1h6.9v-9h7.4v15.7H550.6z"/>
	<path class="st0" d="M550.6,77.4v-7.2l26.3-2.7v-0.1l-26.3-2.7v-7.2l34.9,5.6v8.7L550.6,77.4z"/>
	<path class="st0" d="M550.6,56.1v-6.8h27.5V41h7.4v15.1H550.6z"/>
	<path class="st0" d="M550.6,34.8v-8.5l34.9-6.3v7.2l-6.1,0.7v5.4l6.1,0.7v7.2L550.6,34.8z M557.8,30.5L557.8,30.5l14.8,1.9v-3.8
		L557.8,30.5z"/>
	<path class="st0" d="M550.6,18.6V8c0-5.2,3.9-7.1,9.3-7.1c4.7,0,7.7,1.3,8.3,4.4h0.1c0.4-3.2,3.2-4.3,7.8-4.3h3
		c1.8,0,4.1,0,4.8-0.3c0.4-0.2,0.7-0.3,1.1-0.8h0.5v7.2c-1.8,0.7-5.2,0.7-6.7,0.7h-2.3c-4,0-5,0.6-5,2.2v1.8h14v6.8H550.6z
		 M565.4,11.9v-1.3c0-1.9-1.7-2.8-4.2-2.8c-2.9,0-4.1,0.8-4.1,2.9v1.3H565.4z"/>
</g>
</svg>
