<svg xmlns="http://www.w3.org/2000/svg" width="700" height="192.9"><style>.st0{fill:#f7d917}</style><path class="st0" d="M142 0H88.4L51 73.5h-.6V0H0v191.6h50.4v-50.7L61 124.8l29.5 66.8H142v-11.8L93.2 83.7z"/><path class="st0" d="M618.2 0H158.6l-21 36h464.9c13 0 19.5 7.8 19.5 23.3 0 16.1-6.8 23.3-19.5 23.3h-59.9v97.2l6 11.7H593v-73h17.6c41.2 0 63.4-20.1 63.4-59.6C674 25.8 656.7 0 618.2 0z"/><path class="st0" d="M597.3 122.9h28c13.7 0 18.8 7.7 18.8 18.3 0 9.2-3.6 15.1-11.7 16.3v.2c8.6.8 11.2 6.2 11.2 15.4v5.9c0 3.6 0 8.1.9 9.5.5.8.9 1.4 2 2.1v1h-19c-1.7-3.6-1.7-10.3-1.7-13.1v-4.6c0-7.8-1.5-9.8-5.9-9.8h-4.7v27.5h-17.9v-68.7zm17.9 29.1h3.6c5.1 0 7.5-3.3 7.5-8.2 0-5.7-2.2-8-7.6-8h-3.5V152zm60.3-30.4c18.3 0 24.5 10 24.5 35.7s-6.2 35.7-24.5 35.7-24.5-10-24.5-35.7 6.2-35.7 24.5-35.7zm0 59.2c5.4 0 6.1-5 6.1-23.6s-.7-23.6-6.1-23.6c-5.4 0-6.1 5-6.1 23.6s.7 23.6 6.1 23.6zM145.3 52.6h64.5v29.6h-36.2V106h33.9v28.4h-33.9V162h37.5v29.6h-65.9v-139zm68.2 0h30.2l11.4 104.7h.3l11.4-104.7H297l-23.5 139H237l-23.5-139zm89 0h28.4V162h34.9v29.6h-63.3v-139z"/><path class="st0" d="M391.7 52.6h35.7l26.5 139h-30.2l-2.9-24.3h-22.6l-2.9 24.3h-30.2l26.6-139zm18 28.4h-.3l-7.8 59h15.9l-7.8-59zm49.8-28.4h44.4c21.7 0 29.9 15.6 29.9 37 0 18.7-5.6 30.6-18.6 33.1v.4c13.6 1.6 17.9 12.7 17.9 31.1v11.9c0 7.2 0 16.4 1.4 19.3.8 1.6 1.4 2.9 3.2 4.3v1.9h-30.2c-2.7-7.2-2.7-20.8-2.7-26.5v-9.3c0-15.8-2.4-19.9-9.3-19.9H488v55.7h-28.4v-139zm28.4 58.8h5.6c8.1 0 11.9-6.6 11.9-16.5 0-11.5-3.5-16.2-12.1-16.2h-5.5v32.7zm64.7-58.8c5.5 0 10 4.5 10 10s-4.5 10-10 10-10-4.5-10-10 4.5-10 10-10zm0 17c4.1 0 6.5-2.4 6.5-7s-2.4-7-6.5-7-6.5 2.4-6.5 7c-.1 4.6 2.4 7 6.5 7zm-3.8-12.5h3.4c2.9 0 4.6.8 4.6 3.3 0 1.9-1.2 2.7-2 2.7l2.3 4.1h-2.7l-2.2-3.9h-.9v3.9h-2.5V57.1zm3.8 4.4c1 0 1.5-.4 1.5-1.2 0-.8-.6-1.1-1.5-1.1h-1.3v2.3h1.3z"/></svg>