<!-- Generator: Adobe Illustrator 19.0.1, SVG Export Plug-In  -->
<svg version="1.1"
	 xmlns="http://www.w3.org/2000/svg" xmlns:xlink="http://www.w3.org/1999/xlink" xmlns:a="http://ns.adobe.com/AdobeSVGViewerExtensions/3.0/"
	 x="0px" y="0px" width="700px" height="192.9px" viewBox="0 0 700 192.9" style="enable-background:new 0 0 700 192.9;"
	 xml:space="preserve">
<style type="text/css">
	.st0{fill:#f7d917;}
</style>
<defs>
</defs>
<g>
	<polygon class="st0" points="142,0 88.4,0 51,73.5 50.4,73.5 50.4,0 47.2,0 0,0 0,118.1 0,191.6 47.2,191.6 50.4,191.6 50.4,140.9 
		61,124.8 90.5,191.6 142,191.6 142,179.8 93.2,83.7 	"/>
	<path class="st0" d="M618.2,0H158.6l-21,36H593h9.5c13,0,19.5,7.8,19.5,23.3c0,16.1-6.8,23.3-19.5,23.3H593h-50.4v97.2l6,11.7H593
		v-73h17.6c41.2,0,63.4-20.1,63.4-59.6C674,25.8,656.7,0,618.2,0z"/>
	<g>
		<path class="st0" d="M597.3,122.9h28c13.7,0,18.8,7.7,18.8,18.3c0,9.2-3.6,15.1-11.7,16.3v0.2c8.6,0.8,11.2,6.2,11.2,15.4v5.9
			c0,3.6,0,8.1,0.9,9.5c0.5,0.8,0.9,1.4,2,2.1v1h-19c-1.7-3.6-1.7-10.3-1.7-13.1v-4.6c0-7.8-1.5-9.8-5.9-9.8h-4.7v27.5h-17.9V122.9z
			 M615.2,152h3.6c5.1,0,7.5-3.3,7.5-8.2c0-5.7-2.2-8-7.6-8h-3.5V152z"/>
		<path class="st0" d="M675.5,121.6c18.3,0,24.5,10,24.5,35.7s-6.2,35.7-24.5,35.7c-18.3,0-24.5-10-24.5-35.7
			S657.2,121.6,675.5,121.6z M675.5,180.8c5.4,0,6.1-5,6.1-23.6s-0.7-23.6-6.1-23.6c-5.4,0-6.1,5-6.1,23.6S670.1,180.8,675.5,180.8z
			"/>
	</g>
	<g>
		<path class="st0" d="M145.3,52.6h64.5v29.6h-36.2v23.8h33.9v28.4h-33.9V162h37.5v29.6h-65.9V52.6z"/>
		<path class="st0" d="M213.5,52.6h30.2l11.4,104.7h0.3l11.4-104.7h30.2l-23.5,139H237L213.5,52.6z"/>
		<path class="st0" d="M302.5,52.6h28.4V162h34.9v29.6h-63.3V52.6z"/>
		<path class="st0" d="M391.7,52.6h35.7l26.5,139h-30.2l-2.9-24.3h-22.6l-2.9,24.3h-30.2L391.7,52.6z M409.7,81h-0.3l-7.8,59h15.9
			L409.7,81z"/>
		<path class="st0" d="M459.5,52.6h44.4c21.7,0,29.9,15.6,29.9,37c0,18.7-5.6,30.6-18.6,33.1v0.4c13.6,1.6,17.9,12.7,17.9,31.1v11.9
			c0,7.2,0,16.4,1.4,19.3c0.8,1.6,1.4,2.9,3.2,4.3v1.9h-30.2c-2.7-7.2-2.7-20.8-2.7-26.5v-9.3c0-15.8-2.4-19.9-9.3-19.9h-7.5v55.7
			h-28.4V52.6z M487.9,111.4h5.6c8.1,0,11.9-6.6,11.9-16.5c0-11.5-3.5-16.2-12.1-16.2h-5.5V111.4z"/>
	</g>
</g>
<g>
	<path class="st0" d="M552.6,52.6c5.5,0,10,4.5,10,10c0,5.5-4.5,10-10,10c-5.5,0-10-4.5-10-10C542.6,57.1,547.1,52.6,552.6,52.6z
		 M552.6,69.6c4.1,0,6.5-2.4,6.5-7c0-4.6-2.4-7-6.5-7s-6.5,2.4-6.5,7C546,67.2,548.5,69.6,552.6,69.6z M548.8,57.1h3.4
		c2.9,0,4.6,0.8,4.6,3.3c0,1.9-1.2,2.7-2,2.7l2.3,4.1h-2.7l-2.2-3.9h-0.9v3.9h-2.5V57.1z M552.6,61.5c1,0,1.5-0.4,1.5-1.2
		c0-0.8-0.6-1.1-1.5-1.1h-1.3v2.3H552.6z"/>
</g>
</svg>
