<svg enable-background="new 0 0 665.7 555.2" viewBox="0 0 665.7 555.2" xmlns="http://www.w3.org/2000/svg"><g fill="#fff200"><path d="m237 402.9h39.9v-15.5h-59.8v20.5h19.9z"/><path d="m237.1 433.1h24.8v-15.2h-44.7v35.5h60.9v-15.2h-41z"/><path d="m310.6 437.8c-2.5-.8-3.7-2.4-3.7-4.8v-15.1h-19.9v25.4c0 4.5 3.5 7.7 10.5 9.4 1.7.4 2.9.6 3.7.6h59.1.1v-15h-48.4c-.3 0-.7-.3-1.4-.5z"/><path d="m355.5 389.7c-2.7-1.4-5.8-2.2-9.3-2.2h-44.9c-3.5 0-6.6.8-9.3 2.3-3.4 1.7-5 4.2-5 7.6v10.5h73.4v-10.5c.1-3.3-1.6-5.8-4.9-7.7z"/><path d="m216.1 139.4h63.7c7 0 10.7 5.8 11.1 17.5h58.3c0-38.7-33.8-70.1-75.7-70.1h-47.7c-41.8 0-75.8 31.4-75.8 70.1h52.9c.8-11.7 5.2-17.5 13.2-17.5z"/><path d="m416 139.4h30.7v-.1h67c-8.4-30.2-38.1-52.4-73.4-52.4h-77.3v70.1h53z"/><path d="m150.4 387.6h61.1v20.4h-61.1z"/><path d="m169.4 427.6c5.6 6.3 12.4 11.7 19.9 15.8v-25.4h-19.9z"/><path d="m370.5 387.6h19.9v20.4h-19.9z"/><path d="m370.5 453.4h19.9v-20.2h32.3v20.2h19.9v-35.5h-72.1z"/><path d="m316.2 304.6c22.2-5.8 33.3-17.2 33.3-34.2v-48.2c-.1-13.2-4.1-23.2-12.1-30.2-6.8-6.1-15.4-9.1-25.8-9.1h-161.2c.8 8.8 1.3 13.2 1.5 13.5 1.2 9.3 4.4 17.6 9.6 25 6.6 9 15.5 13.5 26.7 13.5h92.6c7 0 10.5 3 10.5 9.1 0 5.7-3.5 8.7-10.5 8.7h-130.4v52.7h161.3c.7 0 2.3-.2 4.5-.8z"/><path d="m567.2 491.8c-.1-.1-.1-.1-.2-.2.1.1.1.1.2.2z"/><path d="m567.9 303.1c0-1.1-1.2-1.1-1.9-1.1h-1.5v2.4h2.1c.8 0 1.3-.3 1.3-1.3z"/><path d="m566 312.2c3.8 0 6.7-3.1 6.7-6.9s-2.9-6.9-6.7-6.9-6.7 3.1-6.7 6.9 2.9 6.9 6.7 6.9zm-4-12.1h4c2.9 0 4.5.8 4.5 3.2 0 2.1-1.2 2.7-2.8 2.8l2.3 4.2h-2.6l-2.1-4.1h-1v4.1h-2.4z"/><path d="m583.1 314.4v-161.6c0-73.4-59.7-133.1-133.1-133.1h-233.8c-73.4 0-133.1 59.7-133.1 133.1v233.8c0 73.4 59.7 133.1 133.1 133.1h233.8c15.1 0 29.6-2.5 43.1-7.2h.2c3.2-.4 20-2.5 36.7 1.7.3.1.5.1.9.2.2 0 .4.1.6.1 1.7 1.7 4 2.8 6.4 3 1.3 3.9 2.3 8.7 2.8 11.9.5 3.7 2.9 6.7 6.2 8.3 3.4 1.6 7.1 1.4 10.4-.4l2.5-1.4c2.7-1.6 14.4-9.9 17.6-35.8 2.7.6 5.7.3 8.2-1.2 3.8-2.3 5.9-6.5 5.4-10.8l-.4-3.5c1.1-.2 2.2-.5 3.1-1.1 3.9-2.1 6.3-6.3 5.9-10.6l-1.6-22.5c10.2-37.1 2.8-68.6-2.5-83.8 19.4-9.9 45.3-17.2 45.5-17.3-.3.1-.5.1-.9.2 4.1-.9 7.5-3.9 8.5-8 1.3-4.3 0-8.7-3.1-11.5-.9-.7-21.1-17.9-62.4-15.6zm-17.1-19.3c5.6 0 10.1 4.5 10.1 10.1s-4.5 10.1-10.1 10.1-10.2-4.5-10.2-10.1c.1-5.6 4.7-10.1 10.2-10.1zm-349.8 189.8c-54.4 0-98.4-44.1-98.4-98.4v-233.7c0-54.4 44.1-98.4 98.4-98.4h233.8c54.4 0 98.4 44.1 98.4 98.4v113.1c-22.8-4.2-40.9 4.5-50.3 24-32.7-10.2-60.8-11.2-82.1-10.3v-44.4h92.8v-52.7h-145.6v105.8c-7.9 3.2-13.4 7.7-16.3 14.1-3.8 8.4-2.1 17.9 5.4 28.2 23.4 32.9 45.7 49.2 70.6 60.3v16.9h19.8v-9c7.4 2.8 21.1 7.9 25.4 9.5-3.5 17.7-2.8 35.6 1.9 51.1l1.5 5c1.3 4.2 5 7.4 9.4 7.8 4.4.5 8.7-1.6 10.9-5.5l2.6-4.5c12.3-21.4 18.9-30.7 23-35.6 5.6 3.7 10.8 7.9 15 13.6-17.6 26.8-47.9 44.7-82.4 44.7zm365.6-123.3c2.2 4.3 18.5 41.4 5.2 87.7 0 .3 1.7 24.3 1.7 24.3l-4-3.2s-1.8-1.5-5.2-3.4c-.5 1-1 2.1-1.5 3 0 .9 2.1 19.1 2.1 19.1l-4.1-2.9c-.1-.1-2.2-1.5-5.1-3.5-1.2 2.2-2.5 4.1-3.8 6.2 0 .9-.1 1.7-.1 2.6l.2.2c-.1-.1-.1-.1-.2-.2-1.3 27.4-12.2 34.3-12.8 34.6l-2.5 1.4s-2.3-14.2-6.5-21.2c-1.4 0-6.1 0-6.1 0l.8-2.8s.1-.5.4-1.4c-2.2.6-4.5 1.1-7.2 1.2h-.2-.2c-20.7-5.3-41-1.9-41.2-1.9l-5.9.3 4.2-4.2c11.9-12 25.6-17 38.9-17.8 7.4-.5 15-.2 18.8-.1.5-2.1 1.4-4.3 1.9-6.4-4.3-1.1-7.9-1.7-7.9-1.7l-5.8-1.1s14.6-9 16.2-9.9c-4.5-29.1-23-40.3-36.7-47.9-4.1 4.8-9.3 7.5-30.5 44.2l-2.6 4.5-1.5-5c-5-16.4-4.8-36.2.5-54.9-1-.2-13.7-5.3-39.6-14.8-30.1-11-54.4-25.8-80.4-62.5-16.3-23 8-29.2 42.2-32.4 25-2.4 60.1-2.8 101.4 12.1 3.5-13 14.1-32.7 42.5-26.8-1.2 9.4-1.2 13.8-.8 20.1l-5.8-.1 6.5 3.2s1.2 14.8 3.4 25.3c2.2 1.3 4.2 2.6 6.4 3.9 56-13.3 81.3 9.1 81.3 9.1s-35.5 10-56.4 23.1z"/><path d="m544.6 322c-1.1-7.5-2.2-20.2-2.2-20.2l-8.7-6.5s8.4-.9 8.8-1.4c-.3-4-.1-6.6.2-8.7.2-1.6.5-2.9.6-4.2-21.8-5.2-30.6 13.4-33.8 24.4 2.9 1.2 5.9 2.4 9 3.7 8.5 3.7 17.2 8 26.1 12.9z"/><path d="m549.2 332.7s.2-.2.5-.4c.1-.3-.3-.6-2.4-1.9-78.5-48.5-146.6-32.9-173.3-27-.1 0-.2.1-.3.1-15.4 4.6-15 8.2 9.9 35.7.2.3.5.5.8.9-1.4-14.8 27-17.9 70-3.8.2.1 15.8 13 15.7 13.3-9.5-4-72.1-2.1-28 26.2 25.2 8.5 51.4 12 74.8 21 1.4.4 2.8 1.1 4.3 1.7 14.3 5.8 27.4 14.2 38.2 27.1-.1-.2-.1-.9-.1-.9-2.8-40.5-31.7-54.3-36.2-59 48.3-35 98.5-30.7 100.7-30.5-14.7-5.4-53.1-6.2-89.4 6.5 4.3-3.5 10.5-7 14.8-9zm-98.5-24.9-9.8-.4c-1.5-.4 0-1.6 1.4-2.9 2.2-1.8 5.4-3.8 7.7-3.2 4.1 3.5.7 6.5.7 6.5zm46 4.4c2.6 1 5.3 1.9 8 3 2.8 7.9 4.5 17.7 5.3 22.4-2.3-4.3-9.3-18.4-13.3-25.4zm11.7 4c1.9.8 4 1.5 5.9 2.3 2.2 5.9 3.5 13.3 4 16.8-1.7-3.3-7-13.9-9.9-19.1zm9.9 4.1c1.9.9 3.9 1.8 5.9 2.8 1.2 3.9 2.1 8.1 2.7 11.4-1.4-2.4-6-9.9-8.6-14.2zm9.9 4.9c1.8 1 2.6 1.3 4.5 2.5.5 1.8.9 4.1 1.2 5.8-1.4-2.4-3.2-5.1-5.7-8.3z"/><path d="m549.6 497.2c22.5-40.5 2.2-71.7-26.5-86 21.2 13.2 33.6 28 33.3 51 0 0-4.9 3.9-8.3 6.1 1.5.3 3.1.8 4.9 1.2l2.1.5s-2.7 11.6-7.5 22.5l-.4-8.5c-.1 0-7-.9-19.5-.1-10.6.5-20.5 4.4-30.1 12.9 17.1-2.8 37.8 5.1 46.8.1l1.2 1.2c-.5 1.2-.9 3.2-1.3 4.2.8 0 4.4-.2 4.4-.2s4.5 9.2 5.5 18.3c10.7-12.2 6.1-28 6.1-28z"/><path d="m575.4 363.3c-2.5 1.1-5.3 2.8-9.1 5.5 5.5 7.8 23.4 30.1 17.8 73.2 5.3-26.4 5.2-43.4-3.1-66-1.6-4.2-3.4-8.6-5.6-12.7z"/><path d="m396.2 333.8c-1.8 1-3.1 2.1-3.9 3.4-.3.4.3.6.3.6 2.5 1.6 4.8 3.4 10.5 4.6 0 0-4.5-5.5-6.6-8.7 0 .1-.2.1-.3.1z"/><path d="m442.2 338.4s.9-1 1.7-1.8c-.9-.2-1.6-.5-2.5-.8 0 .7.1 1.8.8 2.6z"/><path d="m394.6 347c1.4-.1 3-.3 5.1-.8 0 0-4.8-2.1-8.1-3.9 0 .1.7 2.5 3 4.7z"/><path d="m400.7 332.2c1.8 1.8 3.9 4.2 9.1 6.2 0 0-3.2-5.5-3.5-7.1-2.1.1-4 .5-5.6.9z"/><path d="m447.4 339.2s.5-.8 1.1-1.2c-.4-.1-.9-.3-1.3-.4 0 .5 0 1.3.2 1.6z"/><path d="m436.6 337.8s.5-1.5 1.7-2.8c-.9-.2-1.8-.4-2.7-.6-.1.9.1 2.3 1 3.4z"/><path d="m416.8 331.1c-1.9-.1-3.8-.2-5.5-.2-.1 0-.1 0-.2 0 .9 1.7 1.8 4.2 5.8 5.9 0 0-.3-3.1-.1-5.7z"/><path d="m431.5 337.1s.3-1.8 1.3-3.5c-1.6-.3-3.1-.6-4.6-1 .6 1.4 1.7 3.3 3.3 4.5z"/><path d="m420.5 331.4c.8 1.5 2.1 3.6 4.9 5.2 0 0-.3-2.4.2-4.4-1.8-.3-3.5-.5-5.1-.8z"/><path d="m442.5 346.1c.8-.1 1.5-.1 2.3-.2-1.4-1.2-2.1-2.4-2.1-2.4-.3 1.1-.3 1.9-.2 2.6z"/><path d="m437.9 346.9c.9-.1 1.7-.3 2.6-.4-1.8-1.2-3-2.7-3-2.7-.2 1.3-.1 2.2.4 3.1z"/><path d="m422.6 354.9c.5-1.1 1.3-1.9 2.3-2.8-4-1.1-7-2.6-7-2.6 1.5 2.4 3.1 4.1 4.7 5.4z"/><path d="m427.1 350.5c.9-.5 1.8-1 2.9-1.4-3-1.2-5.3-2.8-5.3-2.8.6 1.8 1.4 3.1 2.4 4.2z"/><path d="m431.7 343.9c.1 1.8.5 3.1 1.2 4.2 1.1-.3 2.2-.6 3.4-.9-2.8-1.4-4.6-3.3-4.6-3.3z"/><path d="m416.4 358.7c2.5 3.1 5.1 5.1 7.6 5.8-1.2-1.8-1.8-3.5-2.1-5-3.1-.1-5.5-.8-5.5-.8z"/><path d="m449.5 345.8c-.9-1-1.2-1.9-1.2-1.9-.5.8-.8 1.4-.8 1.9z"/><path d="m452 345.8h1.1c-.4-.6-.5-1.2-.5-1.2-.2.5-.5.8-.6 1.2z"/><path d="m483.2 447.6c.8-13 8.4-30.9 14.4-40.1-3.4-1.5-12.4-3.9-12.4-3.8-4.1 15.4-4.5 31-2 43.9z"/></g><path d="m532.5 440.2c-4.2-5.7-9.4-9.9-15-13.6-4.1 4.9-10.7 14.2-23 35.6l-2.6 4.5c-2.3 3.9-6.5 6.1-10.9 5.5-4.4-.4-8.1-3.6-9.4-7.8l-1.5-5c-4.8-15.6-5.4-33.4-1.9-51.1-4.3-1.6-18.1-6.7-25.4-9.5v9h-19.8v-16.9c-24.9-11.1-47.3-27.5-70.6-60.3-7.5-10.3-9.2-19.8-5.4-28.2 2.9-6.4 8.4-10.8 16.3-14.1v-105.8h145.6v52.7h-92.8v44.4c21.3-1 49.4.1 82.1 10.3 9.4-19.5 27.5-28.2 50.3-24v-113.1c0-54.3-44-98.4-98.4-98.4h-233.9c-54.3 0-98.4 44-98.4 98.4v233.7c0 54.3 44 98.4 98.4 98.4h233.9c34.5 0 64.8-17.9 82.4-44.7zm-169.5-353.3h77.3c35.4 0 65 22.3 73.4 52.4h-67v.1h-30.7v17.5h-53zm7.5 300.7h19.9v20.4h-19.9zm-144.7-300.7h47.7c41.8 0 75.7 31.4 75.7 70.1h-58.3c-.4-11.7-4.1-17.5-11.1-17.5h-63.7c-8 0-12.4 5.8-13.2 17.5h-52.9c0-38.8 34-70.1 75.8-70.1zm-36.5 356.4c-7.5-4.1-14.3-9.5-19.9-15.8v-9.6h19.9zm22.2-35.3h-61.1v-20.4h61.1zm-61.1-102.6v-52.7h130.4c7 0 10.5-2.9 10.5-8.7 0-6.1-3.5-9.1-10.5-9.1h-92.6c-11.2 0-20.1-4.5-26.7-13.5-5.2-7.4-8.4-15.7-9.6-25-.2-.3-.8-4.8-1.5-13.5h161.2c10.5 0 19 3 25.8 9.1 8 6.9 12 17 12.1 30.2v48.2c0 17-11.1 28.3-33.3 34.2-2.3.5-3.8.8-4.5.8zm66.7 82h59.8v15.5h-39.9v5h-19.9zm61 66h-60.9v-35.5h44.8v15.1h-24.9v5.1h41zm82.4 0h-59.3c-.8 0-1.9-.2-3.7-.6-7-1.7-10.5-4.9-10.5-9.4v-25.4h19.9v15.1c0 2.4 1.2 4 3.7 4.8.6.2 1.1.4 1.4.4h48.4v15.1zm0-45.5h-73.4v-10.5c0-3.4 1.6-5.8 5-7.6 2.7-1.5 5.8-2.3 9.3-2.3h44.9c3.5 0 6.6.8 9.3 2.2 3.4 1.8 5 4.4 5 7.7zm82.1 45.5h-19.9v-20.2h-32.3v20.2h-19.9v-35.5h72.1z"/><path d="m656.5 317.8c-2.6-2.3-21-17.3-56-19.8v-145.2c0-83-67.6-150.5-150.5-150.5h-233.8c-83 0-150.5 67.6-150.5 150.5v233.8c0 83 67.6 150.5 150.5 150.5h233.8c17.9 0 35.1-3.1 51-8.9 5.5-.3 14.3-.4 23 1.5.1.8.3 1.5.4 2.3 1.4 9 7.2 16.7 15.4 20.5 8.2 3.9 17.8 3.6 25.6-1l2.5-1.4c.1 0 .2-.1.2-.1 4.5-2.7 17.2-12.1 23.1-35.6.9-.4 1.7-.9 2.5-1.3 7.1-4.1 11.8-11.1 13.2-19 6.2-5.6 9.6-13.8 9-22.4l-1.4-19.7c7.9-30.8 5.1-57.7.6-76.3 12.1-5 24.7-9 30.3-10.6 9.7-2.7 17.2-10.6 19.5-20.4 2.4-9.9-.8-20.3-8.4-26.9zm-122.4 213.1c-.1 0-.1 0 0 0-.1 0 0 0 0 0s-.1 0 0 0zm114.6-189.3c-1.1 4.1-4.4 7.1-8.5 8 .3-.1.5-.1.9-.2-.2.1-26.2 7.4-45.5 17.3 5.3 15.2 12.7 46.7 2.5 83.8l1.6 22.5c.3 4.3-2.1 8.5-5.9 10.6-1 .5-2.1.9-3.1 1.1l.4 3.5c.5 4.3-1.6 8.5-5.4 10.8-2.5 1.5-5.5 1.8-8.2 1.2-3.2 25.8-14.9 34.2-17.6 35.8l-2.5 1.4c-3.2 1.8-7 2.1-10.4.4-3.2-1.6-5.6-4.6-6.2-8.3-.5-3.2-1.5-8-2.8-11.9-2.4-.2-4.6-1.3-6.4-3-.2 0-.4-.1-.6-.1-.3-.1-.5-.1-.9-.2-16.7-4.2-33.4-2.2-36.7-1.7-.1 0-.1 0-.2 0-13.5 4.8-28 7.2-43.1 7.2h-233.9c-73.4 0-133.1-59.7-133.1-133.1v-233.9c0-73.4 59.7-133.1 133.1-133.1h233.8c73.4 0 133.1 59.7 133.1 133.1v161.5c41.3-2.3 61.5 14.9 62.5 15.8 3.1 2.8 4.4 7.2 3.1 11.5z"/><path d="m567 491.6c-.2-.2-.4-.4-.6-.5.1 0 .4.3.6.5z"/><path d="m556.9 329.4c-2.2-1.3-4.2-2.6-6.4-3.9-2.2-10.5-3.4-25.3-3.4-25.3l-6.5-3.2 5.8.1c-.4-6.3-.4-10.7.8-20.1-28.4-5.8-39 13.8-42.5 26.8-41.3-14.9-76.4-14.5-101.4-12.1-34.2 3.2-58.5 9.4-42.2 32.4 26.1 36.7 50.4 51.5 80.4 62.5 25.8 9.5 38.6 14.6 39.6 14.8-5.3 18.7-5.5 38.5-.5 54.9l1.5 5 2.6-4.5c21.2-36.8 26.4-39.5 30.5-44.2 13.6 7.6 32.1 18.8 36.7 47.9-1.6 1-16.2 9.9-16.2 9.9l5.8 1.1s3.6.6 7.9 1.7c-.5 2.1-1.4 4.3-1.9 6.4-3.8-.1-11.5-.4-18.8.1-13.3.9-27 5.8-38.9 17.8l-4.2 4.2 5.9-.3c.2 0 20.5-3.4 41.2 1.9h.2.2c2.7-.1 5.1-.5 7.2-1.2-.3.9-.4 1.4-.4 1.4l-.8 2.8h6.1c4.2 7 6.5 21.2 6.5 21.2l2.5-1.4c.5-.3 11.5-7.2 12.8-34.6-.2-.2-.5-.4-.6-.5.2.2.4.3.6.5 0-.9.1-1.7.1-2.6 1.3-2.1 2.6-4 3.8-6.2 2.9 1.9 5 3.4 5.1 3.5l4.1 2.9s-2.1-18.3-2.1-19.1c.5-1 1-2.1 1.5-3 3.4 1.8 5.2 3.4 5.2 3.4l4 3.2s-1.7-24-1.7-24.3c13.3-46.3-3-83.4-5.2-87.7 20.9-13.1 56.4-23.1 56.4-23.1s-25.3-22.4-81.3-9.1zm-13.6-48.4c-.1 1.3-.4 2.6-.6 4.2-.3 2.1-.5 4.6-.2 8.7-.3.5-8.8 1.4-8.8 1.4l8.8 6.5s1.1 12.8 2.2 20.2c-8.9-5-17.6-9.2-26.2-12.9-3-1.3-6.1-2.5-9-3.7 3.2-10.9 11.9-29.5 33.8-24.4zm-148.7 66c-2.3-2.2-3-4.6-3-4.6 3.4 1.8 8.1 3.9 8.1 3.9-2.1.4-3.7.6-5.1.7zm-1.9-9.2s-.6-.2-.3-.6c.8-1.3 2.1-2.4 3.9-3.4h.3c2.1 3.1 6.6 8.7 6.6 8.7-5.8-1.3-8-3.1-10.5-4.7zm8-5.6c1.6-.4 3.6-.8 5.6-1 .2 1.6 3.5 7.1 3.5 7.1-5.2-1.9-7.3-4.3-9.1-6.1zm10.4-1.3h.2c1.7 0 3.6.1 5.5.2-.2 2.6.1 5.7.1 5.7-4-1.7-5-4.2-5.8-5.9zm5.3 27.8s2.5.8 5.5.9c.2 1.5.9 3.1 2.1 5-2.6-.8-5.2-2.8-7.6-5.9zm6.2-3.8c-1.6-1.3-3.2-3-4.8-5.4 0 0 3 1.5 7 2.6-.9.9-1.6 1.7-2.2 2.8zm14-17.1c-.9-1.1-1.1-2.5-1-3.5.9.2 1.8.4 2.7.6-1.2 1.4-1.7 2.9-1.7 2.9zm3.9 8.7c-.9.1-1.7.3-2.6.4-.4-.9-.5-1.8-.4-3.1-.1 0 1.1 1.5 3 2.7zm-4.3.7c-1.2.2-2.3.5-3.4.9-.6-1.1-1.1-2.4-1.2-4.2.1 0 1.9 1.9 4.6 3.3zm-4.7-10.1c-1.6-1.2-2.7-3-3.4-4.4 1.5.3 3 .6 4.6 1-.9 1.5-1.2 3.4-1.2 3.4zm-1.5 12c-1.1.4-2.1.9-2.9 1.4-1-1.1-1.7-2.4-2.4-4.2 0-.1 2.2 1.6 5.3 2.8zm-4.7-12.5c-2.8-1.6-4.1-3.7-4.9-5.2 1.6.2 3.4.4 5.1.8-.5 2-.2 4.4-.2 4.4zm57.9 111c-2.5-12.9-2.1-28.4 1.9-43.9 0-.1 9.1 2.3 12.4 3.8-5.9 9.1-13.6 27.1-14.3 40.1zm71 72.7c-1-9.1-5.5-18.3-5.5-18.3s-3.7.2-4.4.2c.4-1 .8-3 1.3-4.2l-1.2-1.2c-9 5-29.7-2.9-46.8-.1 9.5-8.4 19.5-12.3 30.1-12.9 12.4-.8 19.4.1 19.5.1l.4 8.5c4.8-10.9 7.5-22.5 7.5-22.5l-2.1-.5c-1.7-.4-3.4-.9-4.9-1.2 3.5-2.2 8.3-6.1 8.3-6.1.3-23-12.1-37.8-33.3-51 28.7 14.3 49 45.4 26.5 86l10.7-4.9c0 .1 4.6 15.9-6.1 28.1zm30-78.3c5.5-43.1-12.3-65.4-17.8-73.2 3.8-2.7 6.6-4.4 9.1-5.5 2.2 4.1 4 8.4 5.6 12.8 8.3 22.6 8.4 39.6 3.1 65.9zm39.5-106.9c-2.2-.2-52.3-4.5-100.7 30.5 4.5 4.8 33.4 18.5 36.2 59 0 0 0 .6.1.9-10.8-13-23.9-21.3-38.2-27.1-1.5-.6-2.9-1.3-4.3-1.7-23.5-9-49.6-12.4-74.8-21-44.1-28.2 18.5-30.2 28-26.2.1-.3-15.5-13.2-15.7-13.3-42.9-14.2-71.4-11-70 3.8-.2-.3-.5-.5-.8-.9-25-27.5-25.3-31-9.9-35.7.1 0 .2-.1.3-.1 26.7-5.8 94.8-21.5 173.3 27 2.1 1.3 2.5 1.6 2.4 1.9-.3.2-.5.4-.5.4-4.3 1.9-10.5 5.5-14.9 8.9 36.4-12.6 74.8-11.8 89.5-6.4zm-181.5 3.3c-.6-.8-.8-1.8-.8-2.6.9.2 1.6.5 2.5.8-.8.8-1.7 1.8-1.7 1.8zm2.6 7.5c-.8.1-1.5.1-2.3.2-.1-.8-.1-1.5.2-2.6 0 0 .7 1.2 2.1 2.4zm2.6-6.7c-.2-.3-.2-1.1-.2-1.6.4.1.9.3 1.3.4-.6.5-1.1 1.2-1.1 1.2zm2.1 6.6c-.6 0-1.3 0-1.9 0 0-.5.2-1.2.8-1.9 0 0 .3.9 1.1 1.9zm2.5 0c.1-.4.3-.8.5-1.2 0 0 .1.5.5 1.2-.2 0-.5 0-1 0z"/><path d="m518.3 320.3c2.6 4.3 7.1 11.8 8.7 14.2-.6-3.2-1.5-7.5-2.7-11.4-2.1-1-4-1.9-6-2.8z"/><path d="m528.2 325.2c2.6 3.2 4.3 5.9 5.7 8.3-.3-1.7-.6-4-1.2-5.8-2-1.2-2.7-1.6-4.5-2.5z"/><path d="m450 301.2c-2.3-.5-5.5 1.4-7.7 3.2-1.4 1.3-2.9 2.5-1.4 2.9l9.8.4c0 .1 3.4-2.9-.7-6.5z"/><path d="m508.4 316.2c2.9 5.2 8.2 15.8 9.9 19-.5-3.5-1.8-10.8-4-16.8-1.9-.7-4-1.5-5.9-2.2z"/><path d="m496.7 312.2c4 7 11 21.1 13.3 25.4-.8-4.6-2.5-14.5-5.3-22.4-2.7-1.1-5.4-2-8-3z"/><path d="m566 315.2c5.5 0 10.1-4.4 10.1-10.1 0-5.5-4.4-10.1-10.1-10.1-5.5 0-10.1 4.5-10.2 10.1 0 5.6 4.6 10.1 10.2 10.1zm0-16.9c3.8 0 6.7 3.1 6.7 6.9s-2.9 6.9-6.7 6.9-6.7-3.1-6.7-6.9 2.9-6.9 6.7-6.9z"/><path d="m564.4 306.2h1l2.1 4.1h2.6l-2.3-4.2c1.6-.1 2.8-.8 2.8-2.8 0-2.5-1.6-3.2-4.5-3.2h-4v10.2h2.4zm.1-4.2h1.5c.8 0 1.9 0 1.9 1.1 0 1-.5 1.3-1.4 1.3h-2.1z"/></svg>