<?xml version="1.0" encoding="utf-8"?>
<!-- Generator: Adobe Illustrator 22.0.1, SVG Export Plug-In . SVG Version: 6.00 Build 0)  -->
<svg version="1.1" id="sftech_logo" xmlns="http://www.w3.org/2000/svg" xmlns:xlink="http://www.w3.org/1999/xlink" x="0px"
	 y="0px" viewBox="0 0 665.7 555.2" style="enable-background:new 0 0 665.7 555.2;" xml:space="preserve">
<style type="text/css">
	.st0{fill:#FFF200;}
</style>
<g id="yellow">
	<polygon class="st0" points="237,402.9 276.9,402.9 276.9,387.4 217.1,387.4 217.1,407.9 237,407.9 	"/>
	<polygon class="st0" points="237.1,433.1 261.9,433.1 261.9,417.9 217.2,417.9 217.2,453.4 278.1,453.4 278.1,438.2 237.1,438.2 	
		"/>
	<path class="st0" d="M310.6,437.8c-2.5-0.8-3.7-2.4-3.7-4.8v-15.1H287v25.4c0,4.5,3.5,7.7,10.5,9.4c1.7,0.4,2.9,0.6,3.7,0.6h59.1
		h0.1v-15H312C311.7,438.3,311.3,438,310.6,437.8z"/>
	<path class="st0" d="M355.5,389.7c-2.7-1.4-5.8-2.2-9.3-2.2h-44.9c-3.5,0-6.6,0.8-9.3,2.3c-3.4,1.7-5,4.2-5,7.6v10.5h73.4l0,0
		v-10.5C360.5,394.1,358.8,391.6,355.5,389.7z"/>
	<path class="st0" d="M216.1,139.4h63.7c7,0,10.7,5.8,11.1,17.5h58.3c0-38.7-33.8-70.1-75.7-70.1h-47.7c-41.8,0-75.8,31.4-75.8,70.1
		h52.9C203.7,145.2,208.1,139.4,216.1,139.4z"/>
	<path class="st0" d="M416,139.4h30.7v-0.1h67c-8.4-30.2-38.1-52.4-73.4-52.4H363V157h53V139.4z"/>
	<rect x="150.4" y="387.6" class="st0" width="61.1" height="20.4"/>
	<path class="st0" d="M169.4,427.6c5.6,6.3,12.4,11.7,19.9,15.8V418h-19.9V427.6z"/>
	<rect x="370.5" y="387.6" class="st0" width="19.9" height="20.4"/>
	<polygon class="st0" points="370.5,453.4 390.4,453.4 390.4,433.2 422.7,433.2 422.7,453.4 442.6,453.4 442.6,417.9 370.5,417.9 	
		"/>
	<path class="st0" d="M316.2,304.6c22.2-5.8,33.3-17.2,33.3-34.2v-48.2c-0.1-13.2-4.1-23.2-12.1-30.2c-6.8-6.1-15.4-9.1-25.8-9.1
		H150.4c0.8,8.8,1.3,13.2,1.5,13.5c1.2,9.3,4.4,17.6,9.6,25c6.6,9,15.5,13.5,26.7,13.5h92.6c7,0,10.5,3,10.5,9.1
		c0,5.7-3.5,8.7-10.5,8.7H150.4v52.7h161.3C312.4,305.4,314,305.2,316.2,304.6z"/>
	<path class="st0" d="M567.2,491.8c-0.1-0.1-0.1-0.1-0.2-0.2l0,0C567.1,491.7,567.1,491.7,567.2,491.8z"/>
	<path class="st0" d="M567.9,303.1c0-1.1-1.2-1.1-1.9-1.1h-1.5v2.4h2.1C567.4,304.4,567.9,304.1,567.9,303.1z"/>
	<path class="st0" d="M566,312.2c3.8,0,6.7-3.1,6.7-6.9s-2.9-6.9-6.7-6.9s-6.7,3.1-6.7,6.9S562.2,312.2,566,312.2z M562,300.1h4
		c2.9,0,4.5,0.8,4.5,3.2c0,2.1-1.2,2.7-2.8,2.8l2.3,4.2h-2.6l-2.1-4.1h-1v4.1h-2.4L562,300.1L562,300.1z"/>
	<path class="st0" d="M583.1,314.4V152.8c0-73.4-59.7-133.1-133.1-133.1H216.2c-73.4,0-133.1,59.7-133.1,133.1v233.8
		c0,73.4,59.7,133.1,133.1,133.1H450c15.1,0,29.6-2.5,43.1-7.2c0.1,0,0.1,0,0.2,0c3.2-0.4,20-2.5,36.7,1.7c0.3,0.1,0.5,0.1,0.9,0.2
		c0.2,0,0.4,0.1,0.6,0.1c1.7,1.7,4,2.8,6.4,3c1.3,3.9,2.3,8.7,2.8,11.9c0.5,3.7,2.9,6.7,6.2,8.3c3.4,1.6,7.1,1.4,10.4-0.4l2.5-1.4
		c2.7-1.6,14.4-9.9,17.6-35.8c2.7,0.6,5.7,0.3,8.2-1.2c3.8-2.3,5.9-6.5,5.4-10.8l-0.4-3.5c1.1-0.2,2.2-0.5,3.1-1.1
		c3.9-2.1,6.3-6.3,5.9-10.6l-1.6-22.5c10.2-37.1,2.8-68.6-2.5-83.8c19.4-9.9,45.3-17.2,45.5-17.3c-0.3,0.1-0.5,0.1-0.9,0.2
		c4.1-0.9,7.5-3.9,8.5-8c1.3-4.3,0-8.7-3.1-11.5C644.6,329.3,624.4,312.1,583.1,314.4z M566,295.1c5.6,0,10.1,4.5,10.1,10.1
		s-4.5,10.1-10.1,10.1s-10.2-4.5-10.2-10.1C555.9,299.6,560.5,295.1,566,295.1z M216.2,484.9c-54.4,0-98.4-44.1-98.4-98.4V152.8
		c0-54.4,44.1-98.4,98.4-98.4H450c54.4,0,98.4,44.1,98.4,98.4v113.1c-22.8-4.2-40.9,4.5-50.3,24c-32.7-10.2-60.8-11.2-82.1-10.3
		v-44.4h92.8v-52.7H363.2v105.8c-7.9,3.2-13.4,7.7-16.3,14.1c-3.8,8.4-2.1,17.9,5.4,28.2c23.4,32.9,45.7,49.2,70.6,60.3v16.9h19.8
		v-9c7.4,2.8,21.1,7.9,25.4,9.5c-3.5,17.7-2.8,35.6,1.9,51.1l1.5,5c1.3,4.2,5,7.4,9.4,7.8c4.4,0.5,8.7-1.6,10.9-5.5l2.6-4.5
		c12.3-21.4,18.9-30.7,23-35.6c5.6,3.7,10.8,7.9,15,13.6c-17.6,26.8-47.9,44.7-82.4,44.7H216.2L216.2,484.9z M581.8,361.6
		c2.2,4.3,18.5,41.4,5.2,87.7c0,0.3,1.7,24.3,1.7,24.3l-4-3.2c0,0-1.8-1.5-5.2-3.4c-0.5,1-1,2.1-1.5,3c0,0.9,2.1,19.1,2.1,19.1
		l-4.1-2.9c-0.1-0.1-2.2-1.5-5.1-3.5c-1.2,2.2-2.5,4.1-3.8,6.2c0,0.9-0.1,1.7-0.1,2.6c0.1,0.1,0.1,0.1,0.2,0.2
		c-0.1-0.1-0.1-0.1-0.2-0.2c-1.3,27.4-12.2,34.3-12.8,34.6l-2.5,1.4c0,0-2.3-14.2-6.5-21.2c-1.4,0-6.1,0-6.1,0l0.8-2.8
		c0,0,0.1-0.5,0.4-1.4c-2.2,0.6-4.5,1.1-7.2,1.2h-0.2h-0.2c-20.7-5.3-41-1.9-41.2-1.9l-5.9,0.3l4.2-4.2c11.9-12,25.6-17,38.9-17.8
		c7.4-0.5,15-0.2,18.8-0.1c0.5-2.1,1.4-4.3,1.9-6.4c-4.3-1.1-7.9-1.7-7.9-1.7l-5.8-1.1c0,0,14.6-9,16.2-9.9
		c-4.5-29.1-23-40.3-36.7-47.9c-4.1,4.8-9.3,7.5-30.5,44.2l-2.6,4.5l-1.5-5c-5-16.4-4.8-36.2,0.5-54.9c-1-0.2-13.7-5.3-39.6-14.8
		c-30.1-11-54.4-25.8-80.4-62.5c-16.3-23,8-29.2,42.2-32.4c25-2.4,60.1-2.8,101.4,12.1c3.5-13,14.1-32.7,42.5-26.8
		c-1.2,9.4-1.2,13.8-0.8,20.1l-5.8-0.1l6.5,3.2c0,0,1.2,14.8,3.4,25.3c2.2,1.3,4.2,2.6,6.4,3.9c56-13.3,81.3,9.1,81.3,9.1
		S602.7,348.5,581.8,361.6z"/>
	<path class="st0" d="M544.6,322c-1.1-7.5-2.2-20.2-2.2-20.2l-8.7-6.5c0,0,8.4-0.9,8.8-1.4c-0.3-4-0.1-6.6,0.2-8.7
		c0.2-1.6,0.5-2.9,0.6-4.2c-21.8-5.2-30.6,13.4-33.8,24.4c2.9,1.2,5.9,2.4,9,3.7C527,312.8,535.7,317.1,544.6,322z"/>
	<path class="st0" d="M549.2,332.7c0,0,0.2-0.2,0.5-0.4c0.1-0.3-0.3-0.6-2.4-1.9c-78.5-48.5-146.6-32.9-173.3-27
		c-0.1,0-0.2,0.1-0.3,0.1c-15.4,4.6-15,8.2,9.9,35.7c0.2,0.3,0.5,0.5,0.8,0.9c-1.4-14.8,27-17.9,70-3.8c0.2,0.1,15.8,13,15.7,13.3
		c-9.5-4-72.1-2.1-28,26.2c25.2,8.5,51.4,12,74.8,21c1.4,0.4,2.8,1.1,4.3,1.7c14.3,5.8,27.4,14.2,38.2,27.1
		c-0.1-0.2-0.1-0.9-0.1-0.9c-2.8-40.5-31.7-54.3-36.2-59c48.3-35,98.5-30.7,100.7-30.5c-14.7-5.4-53.1-6.2-89.4,6.5
		C538.7,338.2,544.9,334.7,549.2,332.7z M450.7,307.8l-9.8-0.4c-1.5-0.4,0-1.6,1.4-2.9c2.2-1.8,5.4-3.8,7.7-3.2
		C454.1,304.8,450.7,307.8,450.7,307.8z M496.7,312.2c2.6,1,5.3,1.9,8,3c2.8,7.9,4.5,17.7,5.3,22.4
		C507.7,333.3,500.7,319.2,496.7,312.2z M508.4,316.2c1.9,0.8,4,1.5,5.9,2.3c2.2,5.9,3.5,13.3,4,16.8
		C516.6,332,511.3,321.4,508.4,316.2z M518.3,320.3c1.9,0.9,3.9,1.8,5.9,2.8c1.2,3.9,2.1,8.1,2.7,11.4
		C525.5,332.1,520.9,324.6,518.3,320.3z M528.2,325.2c1.8,1,2.6,1.3,4.5,2.5c0.5,1.8,0.9,4.1,1.2,5.8
		C532.5,331.1,530.7,328.4,528.2,325.2z"/>
	<path class="st0" d="M549.6,497.2c22.5-40.5,2.2-71.7-26.5-86c21.2,13.2,33.6,28,33.3,51c0,0-4.9,3.9-8.3,6.1
		c1.5,0.3,3.1,0.8,4.9,1.2l2.1,0.5c0,0-2.7,11.6-7.5,22.5l-0.4-8.5c-0.1,0-7-0.9-19.5-0.1c-10.6,0.5-20.5,4.4-30.1,12.9
		c17.1-2.8,37.8,5.1,46.8,0.1l1.2,1.2c-0.5,1.2-0.9,3.2-1.3,4.2c0.8,0,4.4-0.2,4.4-0.2s4.5,9.2,5.5,18.3c10.7-12.2,6.1-28,6.1-28
		L549.6,497.2z"/>
	<path class="st0" d="M575.4,363.3c-2.5,1.1-5.3,2.8-9.1,5.5c5.5,7.8,23.4,30.1,17.8,73.2c5.3-26.4,5.2-43.4-3.1-66
		C579.4,371.8,577.6,367.4,575.4,363.3z"/>
	<path class="st0" d="M396.2,333.8c-1.8,1-3.1,2.1-3.9,3.4c-0.3,0.4,0.3,0.6,0.3,0.6c2.5,1.6,4.8,3.4,10.5,4.6c0,0-4.5-5.5-6.6-8.7
		C396.5,333.8,396.3,333.8,396.2,333.8z"/>
	<path class="st0" d="M442.2,338.4c0,0,0.9-1,1.7-1.8c-0.9-0.2-1.6-0.5-2.5-0.8C441.4,336.5,441.5,337.6,442.2,338.4z"/>
	<path class="st0" d="M394.6,347c1.4-0.1,3-0.3,5.1-0.8c0,0-4.8-2.1-8.1-3.9C391.6,342.4,392.3,344.8,394.6,347z"/>
	<path class="st0" d="M400.7,332.2c1.8,1.8,3.9,4.2,9.1,6.2c0,0-3.2-5.5-3.5-7.1C404.2,331.4,402.3,331.8,400.7,332.2z"/>
	<path class="st0" d="M447.4,339.2c0,0,0.5-0.8,1.1-1.2c-0.4-0.1-0.9-0.3-1.3-0.4C447.2,338.1,447.2,338.9,447.4,339.2z"/>
	<path class="st0" d="M436.6,337.8c0,0,0.5-1.5,1.7-2.8c-0.9-0.2-1.8-0.4-2.7-0.6C435.5,335.3,435.7,336.7,436.6,337.8z"/>
	<path class="st0" d="M416.8,331.1c-1.9-0.1-3.8-0.2-5.5-0.2c-0.1,0-0.1,0-0.2,0c0.9,1.7,1.8,4.2,5.8,5.9
		C416.9,336.8,416.6,333.7,416.8,331.1z"/>
	<path class="st0" d="M431.5,337.1c0,0,0.3-1.8,1.3-3.5c-1.6-0.3-3.1-0.6-4.6-1C428.8,334,429.9,335.9,431.5,337.1z"/>
	<path class="st0" d="M420.5,331.4c0.8,1.5,2.1,3.6,4.9,5.2c0,0-0.3-2.4,0.2-4.4C423.8,331.9,422.1,331.7,420.5,331.4z"/>
	<path class="st0" d="M442.5,346.1c0.8-0.1,1.5-0.1,2.3-0.2c-1.4-1.2-2.1-2.4-2.1-2.4C442.4,344.6,442.4,345.4,442.5,346.1z"/>
	<path class="st0" d="M437.9,346.9c0.9-0.1,1.7-0.3,2.6-0.4c-1.8-1.2-3-2.7-3-2.7C437.3,345.1,437.4,346,437.9,346.9z"/>
	<path class="st0" d="M422.6,354.9c0.5-1.1,1.3-1.9,2.3-2.8c-4-1.1-7-2.6-7-2.6C419.4,351.9,421,353.6,422.6,354.9z"/>
	<path class="st0" d="M427.1,350.5c0.9-0.5,1.8-1,2.9-1.4c-3-1.2-5.3-2.8-5.3-2.8C425.3,348.1,426.1,349.4,427.1,350.5z"/>
	<path class="st0" d="M431.7,343.9c0.1,1.8,0.5,3.1,1.2,4.2c1.1-0.3,2.2-0.6,3.4-0.9C433.5,345.8,431.7,343.9,431.7,343.9z"/>
	<path class="st0" d="M416.4,358.7c2.5,3.1,5.1,5.1,7.6,5.8c-1.2-1.8-1.8-3.5-2.1-5C418.8,359.4,416.4,358.7,416.4,358.7z"/>
	<path class="st0" d="M449.5,345.8c-0.9-1-1.2-1.9-1.2-1.9c-0.5,0.8-0.8,1.4-0.8,1.9C448.2,345.8,448.9,345.8,449.5,345.8z"/>
	<path class="st0" d="M452,345.8c0.4,0,0.8,0,1.1,0c-0.4-0.6-0.5-1.2-0.5-1.2C452.4,345.1,452.1,345.4,452,345.8z"/>
	<path class="st0" d="M483.2,447.6c0.8-13,8.4-30.9,14.4-40.1c-3.4-1.5-12.4-3.9-12.4-3.8C481.1,419.1,480.7,434.7,483.2,447.6z"/>
</g>
<g id="black">
	<path d="M532.5,440.2c-4.2-5.7-9.4-9.9-15-13.6c-4.1,4.9-10.7,14.2-23,35.6l-2.6,4.5c-2.3,3.9-6.5,6.1-10.9,5.5
		c-4.4-0.4-8.1-3.6-9.4-7.8l-1.5-5c-4.8-15.6-5.4-33.4-1.9-51.1c-4.3-1.6-18.1-6.7-25.4-9.5v9H423v-16.9
		c-24.9-11.1-47.3-27.5-70.6-60.3c-7.5-10.3-9.2-19.8-5.4-28.2c2.9-6.4,8.4-10.8,16.3-14.1V182.5h145.6v52.7h-92.8v44.4
		c21.3-1,49.4,0.1,82.1,10.3c9.4-19.5,27.5-28.2,50.3-24V152.8c0-54.3-44-98.4-98.4-98.4H216.2c-54.3,0-98.4,44-98.4,98.4v233.7
		c0,54.3,44,98.4,98.4,98.4h233.9C484.6,484.9,514.9,467,532.5,440.2z M363,86.9h77.3c35.4,0,65,22.3,73.4,52.4h-67v0.1H416v17.5
		h-53V86.9L363,86.9z M370.5,387.6h19.9V408h-19.9V387.6z M225.8,86.9h47.7c41.8,0,75.7,31.4,75.7,70.1h-58.3
		c-0.4-11.7-4.1-17.5-11.1-17.5h-63.7c-8,0-12.4,5.8-13.2,17.5H150C150,118.2,184,86.9,225.8,86.9z M189.3,443.3
		c-7.5-4.1-14.3-9.5-19.9-15.8v-9.6h19.9V443.3z M211.5,408h-61.1v-20.4h61.1V408L211.5,408z M150.4,305.4v-52.7h130.4
		c7,0,10.5-2.9,10.5-8.7c0-6.1-3.5-9.1-10.5-9.1h-92.6c-11.2,0-20.1-4.5-26.7-13.5c-5.2-7.4-8.4-15.7-9.6-25
		c-0.2-0.3-0.8-4.8-1.5-13.5h161.2c10.5,0,19,3,25.8,9.1c8,6.9,12,17,12.1,30.2v48.2c0,17-11.1,28.3-33.3,34.2
		c-2.3,0.5-3.8,0.8-4.5,0.8L150.4,305.4L150.4,305.4z M217.1,387.4h59.8v15.5H237v5h-19.9V387.4z M278.1,453.4h-60.9v-35.5H262V433
		h-24.9v5.1h41V453.4L278.1,453.4z M360.5,453.4L360.5,453.4h-59.3c-0.8,0-1.9-0.2-3.7-0.6c-7-1.7-10.5-4.9-10.5-9.4V418h19.9v15.1
		c0,2.4,1.2,4,3.7,4.8c0.6,0.2,1.1,0.4,1.4,0.4h48.4v15.1H360.5z M360.5,407.9L360.5,407.9h-73.4v-10.5c0-3.4,1.6-5.8,5-7.6
		c2.7-1.5,5.8-2.3,9.3-2.3h44.9c3.5,0,6.6,0.8,9.3,2.2c3.4,1.8,5,4.4,5,7.7L360.5,407.9L360.5,407.9z M442.6,453.4h-19.9v-20.2
		h-32.3v20.2h-19.9v-35.5h72.1L442.6,453.4L442.6,453.4z"/>
	<path d="M656.5,317.8c-2.6-2.3-21-17.3-56-19.8V152.8c0-83-67.6-150.5-150.5-150.5H216.2c-83,0-150.5,67.6-150.5,150.5v233.8
		c0,83,67.6,150.5,150.5,150.5H450c17.9,0,35.1-3.1,51-8.9c5.5-0.3,14.3-0.4,23,1.5c0.1,0.8,0.3,1.5,0.4,2.3
		c1.4,9,7.2,16.7,15.4,20.5c8.2,3.9,17.8,3.6,25.6-1l2.5-1.4c0.1,0,0.2-0.1,0.2-0.1c4.5-2.7,17.2-12.1,23.1-35.6
		c0.9-0.4,1.7-0.9,2.5-1.3c7.1-4.1,11.8-11.1,13.2-19c6.2-5.6,9.6-13.8,9-22.4l-1.4-19.7c7.9-30.8,5.1-57.7,0.6-76.3
		c12.1-5,24.7-9,30.3-10.6c9.7-2.7,17.2-10.6,19.5-20.4C667.3,334.8,664.1,324.4,656.5,317.8z M534.1,530.9
		C534,530.9,534,530.9,534.1,530.9C534,530.9,534,530.9,534.1,530.9C534,530.9,534.1,530.9,534.1,530.9S534,530.9,534.1,530.9z
		 M648.7,341.6c-1.1,4.1-4.4,7.1-8.5,8c0.3-0.1,0.5-0.1,0.9-0.2c-0.2,0.1-26.2,7.4-45.5,17.3c5.3,15.2,12.7,46.7,2.5,83.8l1.6,22.5
		c0.3,4.3-2.1,8.5-5.9,10.6c-1,0.5-2.1,0.9-3.1,1.1l0.4,3.5c0.5,4.3-1.6,8.5-5.4,10.8c-2.5,1.5-5.5,1.8-8.2,1.2
		c-3.2,25.8-14.9,34.2-17.6,35.8l-2.5,1.4c-3.2,1.8-7,2.1-10.4,0.4c-3.2-1.6-5.6-4.6-6.2-8.3c-0.5-3.2-1.5-8-2.8-11.9
		c-2.4-0.2-4.6-1.3-6.4-3c-0.2,0-0.4-0.1-0.6-0.1c-0.3-0.1-0.5-0.1-0.9-0.2c-16.7-4.2-33.4-2.2-36.7-1.7c-0.1,0-0.1,0-0.2,0
		c-13.5,4.8-28,7.2-43.1,7.2H216.2c-73.4,0-133.1-59.7-133.1-133.1V152.8c0-73.4,59.7-133.1,133.1-133.1H450
		c73.4,0,133.1,59.7,133.1,133.1v161.5c41.3-2.3,61.5,14.9,62.5,15.8C648.7,332.9,650,337.3,648.7,341.6z"/>
	<path d="M567,491.6L567,491.6c-0.2-0.2-0.4-0.4-0.6-0.5C566.5,491.1,566.8,491.4,567,491.6z"/>
	<path d="M556.9,329.4c-2.2-1.3-4.2-2.6-6.4-3.9c-2.2-10.5-3.4-25.3-3.4-25.3l-6.5-3.2l5.8,0.1c-0.4-6.3-0.4-10.7,0.8-20.1
		c-28.4-5.8-39,13.8-42.5,26.8c-41.3-14.9-76.4-14.5-101.4-12.1c-34.2,3.2-58.5,9.4-42.2,32.4c26.1,36.7,50.4,51.5,80.4,62.5
		c25.8,9.5,38.6,14.6,39.6,14.8c-5.3,18.7-5.5,38.5-0.5,54.9l1.5,5l2.6-4.5c21.2-36.8,26.4-39.5,30.5-44.2
		c13.6,7.6,32.1,18.8,36.7,47.9c-1.6,1-16.2,9.9-16.2,9.9l5.8,1.1c0,0,3.6,0.6,7.9,1.7c-0.5,2.1-1.4,4.3-1.9,6.4
		c-3.8-0.1-11.5-0.4-18.8,0.1c-13.3,0.9-27,5.8-38.9,17.8l-4.2,4.2l5.9-0.3c0.2,0,20.5-3.4,41.2,1.9h0.2h0.2
		c2.7-0.1,5.1-0.5,7.2-1.2c-0.3,0.9-0.4,1.4-0.4,1.4l-0.8,2.8c0,0,4.6,0,6.1,0c4.2,7,6.5,21.2,6.5,21.2l2.5-1.4
		c0.5-0.3,11.5-7.2,12.8-34.6c-0.2-0.2-0.5-0.4-0.6-0.5c0.2,0.2,0.4,0.3,0.6,0.5c0-0.9,0.1-1.7,0.1-2.6c1.3-2.1,2.6-4,3.8-6.2
		c2.9,1.9,5,3.4,5.1,3.5l4.1,2.9c0,0-2.1-18.3-2.1-19.1c0.5-1,1-2.1,1.5-3c3.4,1.8,5.2,3.4,5.2,3.4l4,3.2c0,0-1.7-24-1.7-24.3
		c13.3-46.3-3-83.4-5.2-87.7c20.9-13.1,56.4-23.1,56.4-23.1S612.9,316.1,556.9,329.4z M543.3,281c-0.1,1.3-0.4,2.6-0.6,4.2
		c-0.3,2.1-0.5,4.6-0.2,8.7c-0.3,0.5-8.8,1.4-8.8,1.4l8.8,6.5c0,0,1.1,12.8,2.2,20.2c-8.9-5-17.6-9.2-26.2-12.9
		c-3-1.3-6.1-2.5-9-3.7C512.7,294.5,521.4,275.9,543.3,281z M394.6,347c-2.3-2.2-3-4.6-3-4.6c3.4,1.8,8.1,3.9,8.1,3.9
		C397.6,346.7,396,346.9,394.6,347z M392.7,337.8c0,0-0.6-0.2-0.3-0.6c0.8-1.3,2.1-2.4,3.9-3.4c0.1,0,0.2,0,0.3,0
		c2.1,3.1,6.6,8.7,6.6,8.7C397.4,341.2,395.2,339.4,392.7,337.8z M400.7,332.2c1.6-0.4,3.6-0.8,5.6-1c0.2,1.6,3.5,7.1,3.5,7.1
		C404.6,336.4,402.5,334,400.7,332.2z M411.1,330.9c0.1,0,0.1,0,0.2,0c1.7,0,3.6,0.1,5.5,0.2c-0.2,2.6,0.1,5.7,0.1,5.7
		C412.9,335.1,411.9,332.6,411.1,330.9z M416.4,358.7c0,0,2.5,0.8,5.5,0.9c0.2,1.5,0.9,3.1,2.1,5
		C421.4,363.8,418.8,361.8,416.4,358.7z M422.6,354.9c-1.6-1.3-3.2-3-4.8-5.4c0,0,3,1.5,7,2.6C423.9,353,423.2,353.8,422.6,354.9z
		 M436.6,337.8c-0.9-1.1-1.1-2.5-1-3.5c0.9,0.2,1.8,0.4,2.7,0.6C437.1,336.3,436.6,337.8,436.6,337.8z M440.5,346.5
		c-0.9,0.1-1.7,0.3-2.6,0.4c-0.4-0.9-0.5-1.8-0.4-3.1C437.4,343.8,438.6,345.3,440.5,346.5z M436.2,347.2c-1.2,0.2-2.3,0.5-3.4,0.9
		c-0.6-1.1-1.1-2.4-1.2-4.2C431.7,343.9,433.5,345.8,436.2,347.2z M431.5,337.1c-1.6-1.2-2.7-3-3.4-4.4c1.5,0.3,3,0.6,4.6,1
		C431.8,335.2,431.5,337.1,431.5,337.1z M430,349.1c-1.1,0.4-2.1,0.9-2.9,1.4c-1-1.1-1.7-2.4-2.4-4.2
		C424.7,346.2,426.9,347.9,430,349.1z M425.3,336.6c-2.8-1.6-4.1-3.7-4.9-5.2c1.6,0.2,3.4,0.4,5.1,0.8
		C425,334.2,425.3,336.6,425.3,336.6z M483.2,447.6c-2.5-12.9-2.1-28.4,1.9-43.9c0-0.1,9.1,2.3,12.4,3.8
		C491.6,416.6,483.9,434.6,483.2,447.6z M554.2,520.3c-1-9.1-5.5-18.3-5.5-18.3s-3.7,0.2-4.4,0.2c0.4-1,0.8-3,1.3-4.2l-1.2-1.2
		c-9,5-29.7-2.9-46.8-0.1c9.5-8.4,19.5-12.3,30.1-12.9c12.4-0.8,19.4,0.1,19.5,0.1l0.4,8.5c4.8-10.9,7.5-22.5,7.5-22.5l-2.1-0.5
		c-1.7-0.4-3.4-0.9-4.9-1.2c3.5-2.2,8.3-6.1,8.3-6.1c0.3-23-12.1-37.8-33.3-51c28.7,14.3,49,45.4,26.5,86l10.7-4.9
		C560.3,492.3,564.9,508.1,554.2,520.3z M584.2,442c5.5-43.1-12.3-65.4-17.8-73.2c3.8-2.7,6.6-4.4,9.1-5.5c2.2,4.1,4,8.4,5.6,12.8
		C589.4,398.7,589.5,415.7,584.2,442z M623.7,335.1c-2.2-0.2-52.3-4.5-100.7,30.5c4.5,4.8,33.4,18.5,36.2,59c0,0,0,0.6,0.1,0.9
		c-10.8-13-23.9-21.3-38.2-27.1c-1.5-0.6-2.9-1.3-4.3-1.7c-23.5-9-49.6-12.4-74.8-21c-44.1-28.2,18.5-30.2,28-26.2
		c0.1-0.3-15.5-13.2-15.7-13.3c-42.9-14.2-71.4-11-70,3.8c-0.2-0.3-0.5-0.5-0.8-0.9c-25-27.5-25.3-31-9.9-35.7
		c0.1,0,0.2-0.1,0.3-0.1c26.7-5.8,94.8-21.5,173.3,27c2.1,1.3,2.5,1.6,2.4,1.9c-0.3,0.2-0.5,0.4-0.5,0.4c-4.3,1.9-10.5,5.5-14.9,8.9
		C570.6,328.9,609,329.7,623.7,335.1z M442.2,338.4c-0.6-0.8-0.8-1.8-0.8-2.6c0.9,0.2,1.6,0.5,2.5,0.8
		C443.1,337.4,442.2,338.4,442.2,338.4z M444.8,345.9c-0.8,0.1-1.5,0.1-2.3,0.2c-0.1-0.8-0.1-1.5,0.2-2.6
		C442.7,343.5,443.4,344.7,444.8,345.9z M447.4,339.2c-0.2-0.3-0.2-1.1-0.2-1.6c0.4,0.1,0.9,0.3,1.3,0.4
		C447.9,338.5,447.4,339.2,447.4,339.2z M449.5,345.8c-0.6,0-1.3,0-1.9,0c0-0.5,0.2-1.2,0.8-1.9
		C448.4,343.9,448.7,344.8,449.5,345.8z M452,345.8c0.1-0.4,0.3-0.8,0.5-1.2c0,0,0.1,0.5,0.5,1.2C452.8,345.8,452.5,345.8,452,345.8
		z"/>
	<path d="M518.3,320.3c2.6,4.3,7.1,11.8,8.7,14.2c-0.6-3.2-1.5-7.5-2.7-11.4C522.2,322.1,520.3,321.2,518.3,320.3z"/>
	<path d="M528.2,325.2c2.6,3.2,4.3,5.9,5.7,8.3c-0.3-1.7-0.6-4-1.2-5.8C530.7,326.5,530,326.1,528.2,325.2z"/>
	<path d="M450,301.2c-2.3-0.5-5.5,1.4-7.7,3.2c-1.4,1.3-2.9,2.5-1.4,2.9l9.8,0.4C450.7,307.8,454.1,304.8,450,301.2z"/>
	<path d="M508.4,316.2c2.9,5.2,8.2,15.8,9.9,19c-0.5-3.5-1.8-10.8-4-16.8C512.4,317.7,510.3,316.9,508.4,316.2z"/>
	<path d="M496.7,312.2c4,7,11,21.1,13.3,25.4c-0.8-4.6-2.5-14.5-5.3-22.4C502,314.1,499.3,313.2,496.7,312.2z"/>
	<path d="M566,315.2c5.5,0,10.1-4.4,10.1-10.1c0-5.5-4.4-10.1-10.1-10.1c-5.5,0-10.1,4.5-10.2,10.1
		C555.8,310.7,560.4,315.2,566,315.2z M566,298.3c3.8,0,6.7,3.1,6.7,6.9s-2.9,6.9-6.7,6.9s-6.7-3.1-6.7-6.9S562.2,298.3,566,298.3z"
		/>
	<path d="M564.4,306.2h1l2.1,4.1h2.6l-2.3-4.2c1.6-0.1,2.8-0.8,2.8-2.8c0-2.5-1.6-3.2-4.5-3.2h-4v10.2h2.4L564.4,306.2L564.4,306.2z
		 M564.5,302h1.5c0.8,0,1.9,0,1.9,1.1c0,1-0.5,1.3-1.4,1.3h-2.1L564.5,302L564.5,302z"/>
</g>
</svg>
