<svg enable-background="new 0 0 1000 1000" viewBox="0 0 1000 1000" xmlns="http://www.w3.org/2000/svg"><style type="text/css">.st0{fill:#fff;}</style><path class="st0" d="m4741.1 4433.3c-249.3-17.3-560-71-782.5-134.2-164.9-47.9-423.8-95.9-886-163-358.6-51.8-673.2-103.6-700-115.1-51.8-19.2-322.2-314.5-567.7-621.4-813.1-1010.7-1355.8-2013.7-1587.9-2934.2-120.8-473.7-117-406.6-117-2161.4v-1607.1l53.7-51.8 51.8-53.7h767.1 767.1l51.8 53.7 53.7 51.8 9.6 1444.1 9.6 1442.2 53.7 132.3c80.6 203.3 304.9 709.6 324.1 728.8 7.7 11.5 15.3-1135.4 15.3-2546.8v-2566l53.7-53.7c36.4-36.4 82.5-57.5 140-67.1 46-5.7 1223.6-9.6 2615.9-5.7 2403 5.7 2535.3 7.7 2585.2 40.3 30.7 19.2 61.4 55.6 71 82.5 11.5 30.7 19.2 1022.2 19.2 2592.9 0 1398.1 7.7 2535.3 15.3 2523.8 19.2-19.2 243.6-525.5 324.1-728.8l53.7-132.3 9.6-1442.2 9.6-1444.1 53.7-51.8 51.8-53.7h767.1 767.1l51.8 53.7 53.7 51.8v1606.9c0 1754.8 3.8 1687.7-117 2161.4-232.1 920.5-774.8 1923.6-1588 2934.2-245.5 306.9-515.9 602.2-567.7 621.4-26.9 11.5-341.4 63.3-700 115.1-460.3 67.1-721.1 115.1-886 163-126.6 36.4-326 80.6-439.2 95.9-222.4 30.6-671.1 49.8-861 38.3zm926.3-444.9c95.9-19.2 182.2-42.2 191.8-49.9 23-24.9-270.4-285.8-398.9-354.8-157.3-84.4-283.8-117-460.3-117-274.2 0-492.9 95.9-726.9 320.3-111.2 105.5-140 143.8-118.9 157.3 21.1 13.4 262.7 59.4 471.8 86.3 32.6 5.7 239.7 5.7 460.3 1.9 295.3-5.8 450.7-17.3 581.1-44.1zm-1894.8-228.2c76.7-113.1 262.7-304.9 391.2-400.8 145.8-111.2 289.6-184.1 471.8-239.7 203.3-63.3 525.5-63.3 728.8 0 364.4 113.1 652.1 335.6 912.9 707.7 5.8 9.6 983.8-136.2 1004.9-149.6 13.4-7.7 11.5-57.5-7.7-145.7-151.5-724.9-134.2-1561.1 47.9-2153.7 34.5-117 36.4-201.4 36.4-2947.7v-2826.8h-2358.8-2358.9v2836.4c0 2529.6 3.8 2844.1 30.7 2918.9 49.9 140 118.9 504.4 143.8 751.8 38.4 387.4 0 997.3-90.1 1421.1-15.3 72.9-23 138.1-17.3 143.8 11.5 9.6 897.5 149.6 978.1 153.4 24.9 1.8 55.6-25 86.3-69.1zm-1390.4-540.8c65.2-431.5 69-960.8 9.6-1334.8-38.4-249.3-92.1-400.8-278.1-786.3-245.5-506.3-531.2-1152.6-592.6-1336.8l-49.9-147.7v-1313.7-1315.6h-498.6-498.6v1233.1c0 1294.6 13.4 1643.7 76.7 1954.4 191.8 935.9 749.9 1990.7 1609 3041.6 97.8 118.9 182.2 214.8 186 211 3.9-3.9 19.2-95.9 36.5-205.2zm5542.4-111.3c688.5-859.2 1177.5-1729.8 1419.2-2525.7 166.9-550.4 182.2-753.7 182.2-2364.7v-1233.1h-498.6-498.6v1315.6 1313.7l-49.9 147.7c-61.4 184.1-347.1 830.4-592.6 1336.7-186 385.5-239.7 537-278.1 786.3-59.4 372.1-55.6 903.3 9.6 1331 15.3 107.4 28.8 197.5 28.8 205.2 0 26.8 55.6-36.5 278-312.7z" transform="matrix(.1 0 0 -.1 0 482)"/></svg>