<?xml version="1.0" encoding="utf-8"?>
<!-- Generator: Adobe Illustrator 22.0.1, SVG Export Plug-In . SVG Version: 6.00 Build 0)  -->
<svg version="1.1" id="Layer_1" xmlns="http://www.w3.org/2000/svg" xmlns:xlink="http://www.w3.org/1999/xlink" x="0px" y="0px"
	 viewBox="0 0 282.6 95.7" style="enable-background:new 0 0 282.6 95.7;" xml:space="preserve">
<style type="text/css">
	.st0{fill:#E62325;}
	.st1{fill:#FFFFFF;}
</style>
<path class="st0" d="M0,0v95.7h282.6V0H0z M83.2,57.4H64.4v18.7H45.3V57.4H26.6V38.3h18.7V19.6h19.1v18.7h18.8V57.4z M279,92.1
	H109.8V3.6H279V92.1z"/>
<path class="st0" d="M135.5,41c-1.1,0.4-2.6,0.6-4.4,0.6c-3,0-5.2-0.7-6.4-2.2c-0.7-0.8-1.2-2.1-1.4-3.7v0.1h-7.1
	c0,3.8,1.3,6.7,4,8.8c2.7,2.1,6.4,3.2,11.1,3.2c4.6,0,8.2-1,10.7-3.2c2.5-2.1,3.8-4.8,3.8-8.1c0-3.2-1.1-5.6-3.2-7.3
	c-1.4-1.1-3.5-2-6.2-2.6l-6.3-1.5c-2.4-0.6-4-1.1-4.7-1.5c-1.1-0.7-1.7-1.6-1.7-2.9s0.6-2.4,1.8-3.2s2.7-1.2,4.7-1.2
	c1.7,0,3.2,0.3,4.4,0.9c1.8,0.9,2.8,2.5,2.9,4.6h7.2c-0.1-3.8-1.5-6.7-4.2-8.7s-6-3-9.8-3c-4.6,0-8,1.1-10.4,3.2
	c-2.3,2.1-3.5,4.8-3.5,8c0,3.5,1.2,6.1,3.6,7.7c1.4,0.9,4,1.9,7.8,2.7l3.9,0.8c2.3,0.5,4,1.1,5,1.7c1.1,0.6,1.6,1.5,1.6,2.7
	C138.7,38.9,137.6,40.3,135.5,41z"/>
<polygon class="st0" points="165,46.7 169.3,25.8 170.6,18.9 171.9,25.8 176.2,46.7 183.3,46.7 193.4,11 185.8,11 180.9,31.7 
	179.8,37.2 178.7,31.5 174.5,11 166.6,11 162.6,31.6 161.6,37.2 160.6,31.5 155.9,11 155.9,11 147.9,11 158.1,46.7 "/>
<rect x="197.3" y="11" class="st0" width="7.4" height="35.8"/>
<path class="st0" d="M229.2,41c-1.1,0.4-2.6,0.6-4.4,0.6c-3,0-5.2-0.7-6.4-2.2c-0.7-0.8-1.2-2.1-1.4-3.7v0.1h-7.1
	c0,3.8,1.3,6.7,4,8.8c2.7,2.1,6.4,3.2,11.1,3.2c4.6,0,8.2-1,10.7-3.2c2.5-2.1,3.8-4.8,3.8-8.1c0-3.2-1.1-5.6-3.2-7.3
	c-1.4-1.1-3.5-2-6.2-2.6l-6.3-1.5c-2.4-0.6-4-1.1-4.7-1.5c-1.1-0.7-1.7-1.6-1.7-2.9s0.6-2.4,1.8-3.2s2.7-1.2,4.7-1.2
	c1.7,0,3.2,0.3,4.4,0.9c1.8,0.9,2.8,2.5,2.9,4.6h7.2c-0.1-3.8-1.5-6.7-4.2-8.7s-6-3-9.8-3c-4.6,0-8,1.1-10.4,3.2
	c-2.3,2.1-3.5,4.8-3.5,8c0,3.5,1.2,6.1,3.6,7.7c1.4,0.9,4,1.9,7.8,2.7l3.9,0.8c2.3,0.5,4,1.1,5,1.7c1.1,0.6,1.6,1.5,1.6,2.7
	C232.4,38.9,231.3,40.3,229.2,41z"/>
<path class="st0" d="M262.3,41c-1.1,0.4-2.6,0.6-4.4,0.6c-3,0-5.2-0.7-6.4-2.2c-0.7-0.8-1.2-2.1-1.4-3.7l-7.1,0c0,3.8,1.3,6.7,4,8.8
	c2.7,2.1,6.4,3.2,11.1,3.2c4.6,0,8.2-1,10.7-3.2c2.5-2.1,3.8-4.8,3.8-8.1c0-3.2-1.1-5.6-3.2-7.3c-1.4-1.1-3.5-2-6.2-2.6l-6.3-1.5
	c-2.4-0.6-4-1.1-4.7-1.5c-1.1-0.7-1.7-1.6-1.7-2.9s0.6-2.4,1.8-3.2c1.2-0.8,2.7-1.2,4.7-1.2c1.7,0,3.2,0.3,4.4,0.9
	c1.8,0.9,2.8,2.5,2.9,4.6h7.2c-0.1-3.8-1.5-6.7-4.2-8.7s-6-3-9.8-3c-4.5,0-8,1.1-10.4,3.3c-2.3,2.1-3.5,4.8-3.5,8
	c0,3.5,1.2,6.1,3.6,7.7c1.4,0.9,4,1.9,7.8,2.7l3.9,0.8c2.3,0.5,4,1.1,5,1.7c1.1,0.6,1.6,1.5,1.6,2.7C265.5,38.9,264.4,40.3,262.3,41
	z"/>
<polygon class="st0" points="119.5,53.8 119.6,53.8 131.4,85.7 134.6,85.7 146.3,53.8 146.4,53.8 146.4,85.6 149.8,85.6 149.8,49.9 
	144.7,49.9 133.2,81.4 133.1,81.4 121.4,49.9 116.2,49.9 116.2,85.7 116.2,85.7 119.5,85.7 "/>
<path class="st0" d="M173.7,50l-14,35.7h3.4l4.2-11.2h16.3l4.1,11.2h3.5L177.5,50H173.7z M168.5,71.6l7-18.8l7,18.8H168.5z"/>
<path class="st0" d="M231.3,59.6c-0.4-1.4-1-2.7-1.8-3.9c-0.7-1.3-1.7-2.3-2.9-3.2c-0.9-0.6-1.7-1-2.6-1.4c-0.9-0.3-1.8-0.6-2.7-0.8
	c-0.9-0.1-1.8-0.3-2.8-0.3c-0.9-0.1-1.9-0.1-2.9-0.1h-12.2v35.8l12.1-0.1c1.2,0,2.3-0.1,3.5-0.2c1.2-0.1,2.3-0.3,3.4-0.6
	s2.1-0.7,3.1-1.3c1-0.5,1.9-1.3,2.7-2.2c0.9-0.9,1.6-1.9,2.1-3c0.5-1.1,1-2.2,1.3-3.4s0.6-2.4,0.7-3.6c0.1-1.2,0.2-2.4,0.2-3.6
	c0-1.2-0.1-2.5-0.3-3.9C232.1,62.4,231.7,61,231.3,59.6z M228.9,71.5c-0.1,1.3-0.5,2.6-0.9,3.8c-0.4,1.3-1,2.4-1.8,3.4
	c-0.7,1-1.7,1.8-2.9,2.4c-1.4,0.8-2.8,1.2-4.1,1.4c-1.3,0.2-2.8,0.3-4.3,0.3h-8.1V52.9h8.1c1.5,0,2.9,0,4.4,0.2
	c1.5,0.2,2.7,0.5,3.8,1.1c1.3,0.7,2.3,1.5,3.1,2.5s1.4,2.1,1.9,3.3c0.4,1.2,0.7,2.5,0.9,3.8c0.1,1.3,0.2,2.6,0.2,3.9
	C229.2,68.9,229.1,70.2,228.9,71.5z"/>
<polygon class="st0" points="251.8,68.6 270.2,68.6 270.2,65.7 251.8,65.7 251.8,52.8 272.2,52.8 272.2,49.9 248.4,49.9 248.4,85.7 
	272.7,85.7 272.7,82.8 251.8,82.8 "/>
</svg>
