<svg enable-background="new 0 0 282.6 95.7" viewBox="0 0 282.6 95.7" xmlns="http://www.w3.org/2000/svg"><g fill="#e62325"><path d="m0 0v95.7h282.6v-95.7zm83.2 57.4h-18.8v18.7h-19.1v-18.7h-18.7v-19.1h18.7v-18.7h19.1v18.7h18.8zm195.8 34.7h-169.2v-88.5h169.2z"/><path d="m135.5 41c-1.1.4-2.6.6-4.4.6-3 0-5.2-.7-6.4-2.2-.7-.8-1.2-2.1-1.4-3.7v.1h-7.1c0 3.8 1.3 6.7 4 8.8s6.4 3.2 11.1 3.2c4.6 0 8.2-1 10.7-3.2 2.5-2.1 3.8-4.8 3.8-8.1 0-3.2-1.1-5.6-3.2-7.3-1.4-1.1-3.5-2-6.2-2.6l-6.3-1.5c-2.4-.6-4-1.1-4.7-1.5-1.1-.7-1.7-1.6-1.7-2.9s.6-2.4 1.8-3.2 2.7-1.2 4.7-1.2c1.7 0 3.2.3 4.4.9 1.8.9 2.8 2.5 2.9 4.6h7.2c-.1-3.8-1.5-6.7-4.2-8.7s-6-3-9.8-3c-4.6 0-8 1.1-10.4 3.2-2.3 2.1-3.5 4.8-3.5 8 0 3.5 1.2 6.1 3.6 7.7 1.4.9 4 1.9 7.8 2.7l3.9.8c2.3.5 4 1.1 5 1.7 1.1.6 1.6 1.5 1.6 2.7 0 2-1.1 3.4-3.2 4.1z"/><path d="m165 46.7 4.3-20.9 1.3-6.9 1.3 6.9 4.3 20.9h7.1l10.1-35.7h-7.6l-4.9 20.7-1.1 5.5-1.1-5.7-4.2-20.5h-7.9l-4 20.6-1 5.6-1-5.7-4.7-20.5h-8l10.2 35.7z"/><path d="m197.3 11h7.4v35.8h-7.4z"/><path d="m229.2 41c-1.1.4-2.6.6-4.4.6-3 0-5.2-.7-6.4-2.2-.7-.8-1.2-2.1-1.4-3.7v.1h-7.1c0 3.8 1.3 6.7 4 8.8s6.4 3.2 11.1 3.2c4.6 0 8.2-1 10.7-3.2 2.5-2.1 3.8-4.8 3.8-8.1 0-3.2-1.1-5.6-3.2-7.3-1.4-1.1-3.5-2-6.2-2.6l-6.3-1.5c-2.4-.6-4-1.1-4.7-1.5-1.1-.7-1.7-1.6-1.7-2.9s.6-2.4 1.8-3.2 2.7-1.2 4.7-1.2c1.7 0 3.2.3 4.4.9 1.8.9 2.8 2.5 2.9 4.6h7.2c-.1-3.8-1.5-6.7-4.2-8.7s-6-3-9.8-3c-4.6 0-8 1.1-10.4 3.2-2.3 2.1-3.5 4.8-3.5 8 0 3.5 1.2 6.1 3.6 7.7 1.4.9 4 1.9 7.8 2.7l3.9.8c2.3.5 4 1.1 5 1.7 1.1.6 1.6 1.5 1.6 2.7 0 2-1.1 3.4-3.2 4.1z"/><path d="m262.3 41c-1.1.4-2.6.6-4.4.6-3 0-5.2-.7-6.4-2.2-.7-.8-1.2-2.1-1.4-3.7h-7.1c0 3.8 1.3 6.7 4 8.8s6.4 3.2 11.1 3.2c4.6 0 8.2-1 10.7-3.2 2.5-2.1 3.8-4.8 3.8-8.1 0-3.2-1.1-5.6-3.2-7.3-1.4-1.1-3.5-2-6.2-2.6l-6.3-1.5c-2.4-.6-4-1.1-4.7-1.5-1.1-.7-1.7-1.6-1.7-2.9s.6-2.4 1.8-3.2 2.7-1.2 4.7-1.2c1.7 0 3.2.3 4.4.9 1.8.9 2.8 2.5 2.9 4.6h7.2c-.1-3.8-1.5-6.7-4.2-8.7s-6-3-9.8-3c-4.5 0-8 1.1-10.4 3.3-2.3 2.1-3.5 4.8-3.5 8 0 3.5 1.2 6.1 3.6 7.7 1.4.9 4 1.9 7.8 2.7l3.9.8c2.3.5 4 1.1 5 1.7 1.1.6 1.6 1.5 1.6 2.7 0 2-1.1 3.4-3.2 4.1z"/><path d="m119.5 53.8h.1l11.8 31.9h3.2l11.7-31.9h.1v31.8h3.4v-35.7h-5.1l-11.5 31.5h-.1l-11.7-31.5h-5.2v35.8h3.3z"/><path d="m173.7 50-14 35.7h3.4l4.2-11.2h16.3l4.1 11.2h3.5l-13.7-35.7zm-5.2 21.6 7-18.8 7 18.8z"/><path d="m231.3 59.6c-.4-1.4-1-2.7-1.8-3.9-.7-1.3-1.7-2.3-2.9-3.2-.9-.6-1.7-1-2.6-1.4-.9-.3-1.8-.6-2.7-.8-.9-.1-1.8-.3-2.8-.3-.9-.1-1.9-.1-2.9-.1h-12.2v35.8l12.1-.1c1.2 0 2.3-.1 3.5-.2s2.3-.3 3.4-.6 2.1-.7 3.1-1.3c1-.5 1.9-1.3 2.7-2.2.9-.9 1.6-1.9 2.1-3s1-2.2 1.3-3.4.6-2.4.7-3.6.2-2.4.2-3.6-.1-2.5-.3-3.9c-.1-1.4-.5-2.8-.9-4.2zm-2.4 11.9c-.1 1.3-.5 2.6-.9 3.8-.4 1.3-1 2.4-1.8 3.4-.7 1-1.7 1.8-2.9 2.4-1.4.8-2.8 1.2-4.1 1.4s-2.8.3-4.3.3h-8.1v-29.9h8.1c1.5 0 2.9 0 4.4.2s2.7.5 3.8 1.1c1.3.7 2.3 1.5 3.1 2.5s1.4 2.1 1.9 3.3c.4 1.2.7 2.5.9 3.8.1 1.3.2 2.6.2 3.9 0 1.2-.1 2.5-.3 3.8z"/><path d="m251.8 68.6h18.4v-2.9h-18.4v-12.9h20.4v-2.9h-23.8v35.8h24.3v-2.9h-20.9z"/></g></svg>