<?xml version="1.0" encoding="utf-8"?>
<!-- Generator: Adobe Illustrator 22.0.1, SVG Export Plug-In . SVG Version: 6.00 Build 0)  -->
<svg version="1.1" id="Layer_1" xmlns="http://www.w3.org/2000/svg" xmlns:xlink="http://www.w3.org/1999/xlink" x="0px" y="0px"
	 viewBox="0 0 282.6 95.7" style="enable-background:new 0 0 282.6 95.7;" xml:space="preserve">
<style type="text/css">
	.st0{fill:#E62325;}
	.st1{fill:#FFFFFF;}
</style>
<path class="st0" d="M0,0v95.7h282.6V0H0z M83.2,57.4H64.4v18.7H45.3V57.4H26.6V38.3h18.7V19.6h19.1v18.7h18.8V57.4z M279,92.1
	H109.8V3.6H279V92.1z"/>
<path class="st0" d="M135.5,41c-1.1,0.4-2.6,0.6-4.4,0.6c-3,0-5.2-0.7-6.4-2.2c-0.7-0.8-1.2-2.1-1.4-3.7v0.1h-7.1
	c0,3.8,1.3,6.7,4,8.8c2.7,2.1,6.4,3.2,11.1,3.2c4.6,0,8.2-1,10.7-3.2c2.5-2.1,3.8-4.8,3.8-8.1c0-3.2-1.1-5.6-3.2-7.3
	c-1.4-1.1-3.5-2-6.2-2.6l-6.3-1.5c-2.4-0.6-4-1.1-4.7-1.5c-1.1-0.7-1.7-1.6-1.7-2.9s0.6-2.4,1.8-3.2s2.7-1.2,4.7-1.2
	c1.7,0,3.2,0.3,4.4,0.9c1.8,0.9,2.8,2.5,2.9,4.6h7.2c-0.1-3.8-1.5-6.7-4.2-8.7s-6-3-9.8-3c-4.6,0-8,1.1-10.4,3.2
	c-2.3,2.1-3.5,4.8-3.5,8c0,3.5,1.2,6.1,3.6,7.7c1.4,0.9,4,1.9,7.8,2.7l3.9,0.8c2.3,0.5,4,1.1,5,1.7c1.1,0.6,1.6,1.5,1.6,2.7
	C138.7,38.9,137.6,40.3,135.5,41z"/>
<polygon class="st0" points="165,46.7 169.3,25.8 170.6,18.9 171.9,25.8 176.2,46.7 183.3,46.7 193.4,11 185.8,11 180.9,31.7 
	179.8,37.2 178.7,31.5 174.5,11 166.6,11 162.6,31.6 161.6,37.2 160.6,31.5 155.9,11 155.9,11 147.9,11 158.1,46.7 "/>
<rect x="197.3" y="11" class="st0" width="7.4" height="35.8"/>
<path class="st0" d="M229.2,41c-1.1,0.4-2.6,0.6-4.4,0.6c-3,0-5.2-0.7-6.4-2.2c-0.7-0.8-1.2-2.1-1.4-3.7v0.1h-7.1
	c0,3.8,1.3,6.7,4,8.8c2.7,2.1,6.4,3.2,11.1,3.2c4.6,0,8.2-1,10.7-3.2c2.5-2.1,3.8-4.8,3.8-8.1c0-3.2-1.1-5.6-3.2-7.3
	c-1.4-1.1-3.5-2-6.2-2.6l-6.3-1.5c-2.4-0.6-4-1.1-4.7-1.5c-1.1-0.7-1.7-1.6-1.7-2.9s0.6-2.4,1.8-3.2s2.7-1.2,4.7-1.2
	c1.7,0,3.2,0.3,4.4,0.9c1.8,0.9,2.8,2.5,2.9,4.6h7.2c-0.1-3.8-1.5-6.7-4.2-8.7s-6-3-9.8-3c-4.6,0-8,1.1-10.4,3.2
	c-2.3,2.1-3.5,4.8-3.5,8c0,3.5,1.2,6.1,3.6,7.7c1.4,0.9,4,1.9,7.8,2.7l3.9,0.8c2.3,0.5,4,1.1,5,1.7c1.1,0.6,1.6,1.5,1.6,2.7
	C232.4,38.9,231.3,40.3,229.2,41z"/>
<path class="st0" d="M262.3,41c-1.1,0.4-2.6,0.6-4.4,0.6c-3,0-5.2-0.7-6.4-2.2c-0.7-0.8-1.2-2.1-1.4-3.7l-7.1,0c0,3.8,1.3,6.7,4,8.8
	c2.7,2.1,6.4,3.2,11.1,3.2c4.6,0,8.2-1,10.7-3.2c2.5-2.1,3.8-4.8,3.8-8.1c0-3.2-1.1-5.6-3.2-7.3c-1.4-1.1-3.5-2-6.2-2.6l-6.3-1.5
	c-2.4-0.6-4-1.1-4.7-1.5c-1.1-0.7-1.7-1.6-1.7-2.9s0.6-2.4,1.8-3.2c1.2-0.8,2.7-1.2,4.7-1.2c1.7,0,3.2,0.3,4.4,0.9
	c1.8,0.9,2.8,2.5,2.9,4.6h7.2c-0.1-3.8-1.5-6.7-4.2-8.7s-6-3-9.8-3c-4.5,0-8,1.1-10.4,3.3c-2.3,2.1-3.5,4.8-3.5,8
	c0,3.5,1.2,6.1,3.6,7.7c1.4,0.9,4,1.9,7.8,2.7l3.9,0.8c2.3,0.5,4,1.1,5,1.7c1.1,0.6,1.6,1.5,1.6,2.7C265.5,38.9,264.4,40.3,262.3,41
	z"/>
<polygon class="st0" points="119.5,53.8 119.6,53.8 131.4,85.7 134.6,85.7 146.3,53.8 146.4,53.8 146.4,85.6 149.8,85.6 149.8,49.9 
	144.7,49.9 133.2,81.4 133.1,81.4 121.4,49.9 116.2,49.9 116.2,85.7 116.2,85.7 119.5,85.7 "/>
<path class="st0" d="M173.7,50l-14,35.7h3.4l4.2-11.2h16.3l4.1,11.2h3.5L177.5,50H173.7z M168.5,71.6l7-18.8l7,18.8H168.5z"/>
<path class="st0" d="M231.3,59.6c-0.4-1.4-1-2.7-1.8-3.9c-0.7-1.3-1.7-2.3-2.9-3.2c-0.9-0.6-1.7-1-2.6-1.4c-0.9-0.3-1.8-0.6-2.7-0.8
	c-0.9-0.1-1.8-0.3-2.8-0.3c-0.9-0.1-1.9-0.1-2.9-0.1h-12.2v35.8l12.1-0.1c1.2,0,2.3-0.1,3.5-0.2c1.2-0.1,2.3-0.3,3.4-0.6
	s2.1-0.7,3.1-1.3c1-0.5,1.9-1.3,2.7-2.2c0.9-0.9,1.6-1.9,2.1-3c0.5-1.1,1-2.2,1.3-3.4s0.6-2.4,0.7-3.6c0.1-1.2,0.2-2.4,0.2-3.6
	c0-1.2-0.1-2.5-0.3-3.9C232.1,62.4,231.7,61,231.3,59.6z M228.9,71.5c-0.1,1.3-0.5,2.6-0.9,3.8c-0.4,1.3-1,2.4-1.8,3.4
	c-0.7,1-1.7,1.8-2.9,2.4c-1.4,0.8-2.8,1.2-4.1,1.4c-1.3,0.2-2.8,0.3-4.3,0.3h-8.1V52.9h8.1c1.5,0,2.9,0,4.4,0.2
	c1.5,0.2,2.7,0.5,3.8,1.1c1.3,0.7,2.3,1.5,3.1,2.5s1.4,2.1,1.9,3.3c0.4,1.2,0.7,2.5,0.9,3.8c0.1,1.3,0.2,2.6,0.2,3.9
	C229.2,68.9,229.1,70.2,228.9,71.5z"/>
<polygon class="st0" points="251.8,68.6 270.2,68.6 270.2,65.7 251.8,65.7 251.8,52.8 272.2,52.8 272.2,49.9 248.4,49.9 248.4,85.7 
	272.7,85.7 272.7,82.8 251.8,82.8 "/>
<path class="st1" d="M228.1,60c-0.5-1.2-1.1-2.3-1.9-3.3s-1.8-1.8-3.1-2.5c-1.1-0.6-2.3-0.9-3.8-1.1c-1.5-0.2-2.9-0.2-4.4-0.2h-8.1
	v29.9h8.1c1.5,0,3-0.1,4.3-0.3c1.3-0.2,2.7-0.6,4.1-1.4c1.2-0.6,2.2-1.4,2.9-2.4c0.8-1,1.4-2.1,1.8-3.4c0.4-1.2,0.8-2.5,0.9-3.8
	c0.2-1.3,0.3-2.6,0.3-3.8c0-1.3-0.1-2.6-0.2-3.9C228.8,62.5,228.5,61.2,228.1,60z"/>
<polygon class="st1" points="168.5,71.6 182.5,71.6 175.5,52.8 "/>
<path class="st1" d="M109.8,3.6v88.5H279V3.6H109.8z M137.1,34.2c-1-0.6-2.7-1.2-5-1.7l-3.9-0.8c-3.8-0.8-6.4-1.8-7.8-2.7
	c-2.4-1.6-3.6-4.2-3.6-7.7c0-3.2,1.2-5.9,3.5-8c2.4-2.1,5.8-3.2,10.4-3.2c3.8,0,7.1,1,9.8,3s4.1,4.9,4.2,8.7h-7.2
	c-0.1-2.1-1.1-3.7-2.9-4.6c-1.2-0.6-2.7-0.9-4.4-0.9c-2,0-3.5,0.4-4.7,1.2s-1.8,1.9-1.8,3.2s0.6,2.2,1.7,2.9
	c0.7,0.4,2.3,0.9,4.7,1.5l6.3,1.5c2.7,0.6,4.8,1.5,6.2,2.6c2.1,1.7,3.2,4.1,3.2,7.3c0,3.3-1.3,6-3.8,8.1c-2.5,2.2-6.1,3.2-10.7,3.2
	c-4.7,0-8.4-1.1-11.1-3.2c-2.7-2.1-4-5-4-8.8h7.1v-0.1c0.2,1.6,0.7,2.9,1.4,3.7c1.2,1.5,3.4,2.2,6.4,2.2c1.8,0,3.3-0.2,4.4-0.6
	c2.1-0.7,3.2-2.1,3.2-4.1C138.7,35.7,138.2,34.8,137.1,34.2z M149.8,85.6h-3.4V53.8h-0.1l-11.7,31.9h-3.2l-11.8-31.9h-0.1v31.9h-3.3
	v0V49.9h5.2l11.7,31.5h0.1l11.5-31.5h5.1V85.6z M187.7,85.7l-4.1-11.2h-16.3l-4.2,11.2h-3.4l14-35.7h3.8l13.7,35.7H187.7z
	 M183.3,46.7h-7.1l-4.3-20.9l-1.3-6.9l-1.3,6.9L165,46.7h-6.9L147.9,11h8v0l4.7,20.5l1,5.7l1-5.6l4-20.6h7.9l4.2,20.5l1.1,5.7
	l1.1-5.5l4.9-20.7h7.6L183.3,46.7z M197.3,11h7.4v35.8h-7.4V11z M232.3,71.3c-0.1,1.2-0.4,2.4-0.7,3.6s-0.8,2.3-1.3,3.4
	c-0.5,1.1-1.2,2.1-2.1,3c-0.8,0.9-1.7,1.7-2.7,2.2c-1,0.6-2,1-3.1,1.3s-2.2,0.5-3.4,0.6c-1.2,0.1-2.3,0.2-3.5,0.2l-12.1,0.1V49.9
	h12.2c1,0,2,0,2.9,0.1c1,0,1.9,0.2,2.8,0.3c0.9,0.2,1.8,0.5,2.7,0.8c0.9,0.4,1.7,0.8,2.6,1.4c1.2,0.9,2.2,1.9,2.9,3.2
	c0.8,1.2,1.4,2.5,1.8,3.9c0.4,1.4,0.8,2.8,0.9,4.2c0.2,1.4,0.3,2.7,0.3,3.9C232.5,68.9,232.4,70.1,232.3,71.3z M235.7,44.6
	c-2.5,2.2-6.1,3.2-10.7,3.2c-4.7,0-8.4-1.1-11.1-3.2c-2.7-2.1-4-5-4-8.8h7.1v-0.1c0.2,1.6,0.7,2.9,1.4,3.7c1.2,1.5,3.4,2.2,6.4,2.2
	c1.8,0,3.3-0.2,4.4-0.6c2.1-0.7,3.2-2.1,3.2-4.1c0-1.2-0.5-2.1-1.6-2.7c-1-0.6-2.7-1.2-5-1.7l-3.9-0.8c-3.8-0.8-6.4-1.8-7.8-2.7
	c-2.4-1.6-3.6-4.2-3.6-7.7c0-3.2,1.2-5.9,3.5-8c2.4-2.1,5.8-3.2,10.4-3.2c3.8,0,7.1,1,9.8,3s4.1,4.9,4.2,8.7h-7.2
	c-0.1-2.1-1.1-3.7-2.9-4.6c-1.2-0.6-2.7-0.9-4.4-0.9c-2,0-3.5,0.4-4.7,1.2s-1.8,1.9-1.8,3.2s0.6,2.2,1.7,2.9
	c0.7,0.4,2.3,0.9,4.7,1.5l6.3,1.5c2.7,0.6,4.8,1.5,6.2,2.6c2.1,1.7,3.2,4.1,3.2,7.3C239.5,39.8,238.2,42.5,235.7,44.6z M243,35.7
	l7.1,0c0.2,1.6,0.7,2.9,1.4,3.7c1.2,1.5,3.4,2.2,6.4,2.2c1.8,0,3.3-0.2,4.4-0.6c2.1-0.7,3.2-2.1,3.2-4.1c0-1.2-0.5-2.1-1.6-2.7
	c-1-0.6-2.7-1.2-5-1.7l-3.9-0.8c-3.8-0.8-6.4-1.8-7.8-2.7c-2.4-1.6-3.6-4.2-3.6-7.7c0-3.2,1.2-5.9,3.5-8c2.4-2.2,5.9-3.3,10.4-3.3
	c3.8,0,7.1,1,9.8,3s4.1,4.9,4.2,8.7h-7.2c-0.1-2.1-1.1-3.7-2.9-4.6c-1.2-0.6-2.7-0.9-4.4-0.9c-2,0-3.5,0.4-4.7,1.2
	c-1.2,0.8-1.8,1.9-1.8,3.2s0.6,2.2,1.7,2.9c0.7,0.4,2.3,0.9,4.7,1.5l6.3,1.5c2.7,0.6,4.8,1.5,6.2,2.6c2.1,1.7,3.2,4.1,3.2,7.3
	c0,3.3-1.3,6-3.8,8.1c-2.5,2.2-6.1,3.2-10.7,3.2c-4.7,0-8.4-1.1-11.1-3.2C244.3,42.4,243,39.5,243,35.7z M272.7,85.7h-24.3V49.9
	h23.8v2.9h-20.4v12.9h18.4v2.9h-18.4v14.2h20.9V85.7z"/>
<polygon class="st1" points="64.4,19.6 45.3,19.6 45.3,38.3 26.6,38.3 26.6,57.4 45.3,57.4 45.3,76.1 64.4,76.1 64.4,57.4 
	83.2,57.4 83.2,38.3 64.4,38.3 "/>
</svg>
