<?xml version="1.0" encoding="utf-8"?>
<!-- Generator: Adobe Illustrator 19.0.1, SVG Export Plug-In . SVG Version: 6.00 Build 0)  -->
<svg version="1.1" id="Layer_1" xmlns="http://www.w3.org/2000/svg" xmlns:xlink="http://www.w3.org/1999/xlink" x="0px" y="0px"
	 viewBox="0 0 166 244.6" style="enable-background:new 0 0 166 244.6;" xml:space="preserve">
<style type="text/css">
	.st0{fill:#FFFFFF;}
	.st1{fill:#E62325;}
</style>
<rect class="st0" width="166" height="244.6"/>
<g>
	<path d="M11.7,189.7c0.2,1.6,0.7,2.9,1.4,3.7c1.2,1.5,3.4,2.2,6.4,2.2c1.8,0,3.3-0.2,4.4-0.6c2.1-0.7,3.2-2.1,3.2-4.1
		c0-1.2-0.5-2.1-1.6-2.7c-1-0.6-2.7-1.2-5-1.7l-3.9-0.8c-3.8-0.8-6.4-1.8-7.8-2.7c-2.4-1.6-3.6-4.2-3.6-7.7c0-3.2,1.2-5.9,3.5-8
		C11,165,14.5,164,19,164c3.8,0,7.1,1,9.8,3c2.7,2,4.1,4.9,4.2,8.7h-7.2c-0.1-2.1-1.1-3.7-2.9-4.6c-1.2-0.6-2.7-0.9-4.4-0.9
		c-2,0-3.5,0.4-4.7,1.2s-1.8,1.9-1.8,3.2c0,1.3,0.6,2.2,1.7,2.9c0.7,0.4,2.3,0.9,4.7,1.5l6.3,1.5c2.7,0.6,4.8,1.5,6.2,2.6
		c2.1,1.7,3.2,4.1,3.2,7.3c0,3.3-1.3,6-3.8,8.1c-2.5,2.2-6.1,3.2-10.7,3.2c-4.7,0-8.4-1.1-11.1-3.2c-2.7-2.1-4-5-4-8.8H11.7z"/>
	<path d="M44.3,165l4.7,20.5l1,5.7l1-5.6l4-20.6H63l4.2,20.5l1.1,5.7l1.1-5.5l4.8-20.7h7.6l-10.1,35.7h-7.1l-4.3-20.9L59,173
		l-1.3,6.9l-4.3,20.9h-6.9L36.3,165H44.3z"/>
	<path d="M93.1,200.8h-7.4V165h7.4V200.8z"/>
	<path d="M105.4,189.7c0.2,1.6,0.7,2.9,1.4,3.7c1.2,1.5,3.4,2.2,6.4,2.2c1.8,0,3.3-0.2,4.4-0.6c2.1-0.7,3.2-2.1,3.2-4.1
		c0-1.2-0.5-2.1-1.6-2.7c-1-0.6-2.7-1.2-5-1.7l-3.9-0.8c-3.8-0.8-6.4-1.8-7.8-2.7c-2.4-1.6-3.6-4.2-3.6-7.7c0-3.2,1.2-5.9,3.5-8
		c2.4-2.1,5.8-3.2,10.4-3.2c3.8,0,7.1,1,9.8,3c2.7,2,4.1,4.9,4.2,8.7h-7.2c-0.1-2.1-1.1-3.7-2.9-4.6c-1.2-0.6-2.7-0.9-4.4-0.9
		c-2,0-3.5,0.4-4.7,1.2c-1.2,0.8-1.8,1.9-1.8,3.2c0,1.3,0.6,2.2,1.7,2.9c0.7,0.4,2.3,0.9,4.7,1.5l6.3,1.5c2.7,0.6,4.8,1.5,6.2,2.6
		c2.1,1.7,3.2,4.1,3.2,7.3c0,3.3-1.3,6-3.8,8.1c-2.5,2.2-6.1,3.2-10.7,3.2c-4.7,0-8.4-1.1-11.1-3.2c-2.7-2.1-4-5-4-8.8H105.4z"/>
	<path d="M138.5,189.7c0.2,1.6,0.7,2.9,1.4,3.7c1.2,1.5,3.4,2.2,6.4,2.2c1.8,0,3.3-0.2,4.4-0.6c2.1-0.7,3.2-2.1,3.2-4.1
		c0-1.2-0.5-2.1-1.6-2.7c-1-0.6-2.7-1.2-5-1.7l-3.9-0.8c-3.8-0.8-6.4-1.8-7.8-2.7c-2.4-1.6-3.6-4.2-3.6-7.7c0-3.2,1.2-5.9,3.5-8
		c2.4-2.1,5.8-3.2,10.4-3.2c3.8,0,7.1,1,9.8,3c2.7,2,4.1,4.9,4.2,8.7h-7.2c-0.1-2.1-1.1-3.7-2.9-4.6c-1.2-0.6-2.7-0.9-4.4-0.9
		c-2,0-3.5,0.4-4.7,1.2s-1.8,1.9-1.8,3.2c0,1.3,0.6,2.2,1.7,2.9c0.7,0.4,2.3,0.9,4.7,1.5l6.3,1.5c2.7,0.6,4.8,1.5,6.2,2.6
		c2.1,1.7,3.2,4.1,3.2,7.3c0,3.3-1.3,6-3.8,8.1c-2.5,2.2-6.1,3.2-10.7,3.2c-4.7,0-8.4-1.1-11.1-3.2c-2.7-2.1-4-5-4-8.8H138.5z"/>
	<path d="M4.5,239.6v-35.7h5.2l11.7,31.5h0.1L33,203.9h5.1v35.7h-3.4v-31.9h-0.1L23,239.6h-3.2L8,207.8H7.9v31.9H4.5z"/>
	<path d="M48.1,239.6l14-35.7H66l13.7,35.7h-3.5l-4.1-11.2H55.8l-4.2,11.2H48.1z M56.9,225.5h14l-7-18.8L56.9,225.5z"/>
	<path d="M91.8,239.6v-35.7H104c1,0,2,0,2.9,0.1c1,0,1.9,0.2,2.8,0.3c0.9,0.2,1.8,0.5,2.7,0.8c0.9,0.4,1.7,0.8,2.6,1.4
		c1.2,0.9,2.2,1.9,2.9,3.2s1.4,2.5,1.8,3.9c0.4,1.4,0.8,2.8,0.9,4.2s0.3,2.7,0.3,3.9c0,1.2-0.1,2.4-0.2,3.6
		c-0.1,1.2-0.4,2.4-0.7,3.6c-0.3,1.2-0.8,2.3-1.3,3.4c-0.5,1.1-1.2,2.1-2.1,3c-0.8,0.9-1.7,1.7-2.7,2.2c-1,0.6-2,1-3.1,1.3
		c-1.1,0.3-2.2,0.5-3.4,0.6c-1.2,0.1-2.3,0.2-3.5,0.2H91.8z M95.2,236.8h8.1c1.5,0,3-0.1,4.3-0.3c1.3-0.2,2.7-0.6,4.1-1.4
		c1.2-0.6,2.2-1.4,2.9-2.4c0.8-1,1.4-2.1,1.8-3.4c0.4-1.2,0.8-2.5,0.9-3.8c0.2-1.3,0.3-2.6,0.3-3.8c0-1.3-0.1-2.6-0.2-3.9
		c-0.2-1.3-0.5-2.6-0.9-3.8c-0.5-1.2-1.1-2.3-1.9-3.3c-0.8-1-1.8-1.8-3.1-2.5c-1.1-0.6-2.3-0.9-3.8-1.1c-1.5-0.2-2.9-0.2-4.4-0.2
		h-8.1V236.8z"/>
	<path d="M136.8,239.6v-35.7h23.8v2.9h-20.4v12.9h18.4v2.9h-18.4v14.2H161v2.9H136.8z"/>
</g>
<path class="st1" d="M4.8,5v156h156V5H4.8z M131.5,97.6H97.4v34.1H68.2V97.6H34V68.4h34.1V34.2h29.2v34.1h34.1V97.6z"/>
</svg>
