<svg enable-background="new 0 0 166 244.6" viewBox="0 0 166 244.6" xmlns="http://www.w3.org/2000/svg"><path d="m0 0h166v244.6h-166z" fill="#fff"/><path d="m11.7 189.7c.2 1.6.7 2.9 1.4 3.7 1.2 1.5 3.4 2.2 6.4 2.2 1.8 0 3.3-.2 4.4-.6 2.1-.7 3.2-2.1 3.2-4.1 0-1.2-.5-2.1-1.6-2.7-1-.6-2.7-1.2-5-1.7l-3.9-.8c-3.8-.8-6.4-1.8-7.8-2.7-2.4-1.6-3.6-4.2-3.6-7.7 0-3.2 1.2-5.9 3.5-8 2.3-2.3 5.8-3.3 10.3-3.3 3.8 0 7.1 1 9.8 3s4.1 4.9 4.2 8.7h-7.2c-.1-2.1-1.1-3.7-2.9-4.6-1.2-.6-2.7-.9-4.4-.9-2 0-3.5.4-4.7 1.2s-1.8 1.9-1.8 3.2.6 2.2 1.7 2.9c.7.4 2.3.9 4.7 1.5l6.3 1.5c2.7.6 4.8 1.5 6.2 2.6 2.1 1.7 3.2 4.1 3.2 7.3 0 3.3-1.3 6-3.8 8.1-2.5 2.2-6.1 3.2-10.7 3.2-4.7 0-8.4-1.1-11.1-3.2s-4-5-4-8.8z"/><path d="m44.3 165 4.7 20.5 1 5.7 1-5.6 4-20.6h8l4.2 20.5 1.1 5.7 1.1-5.5 4.8-20.7h7.6l-10.1 35.7h-7.1l-4.3-20.9-1.3-6.8-1.3 6.9-4.3 20.9h-6.9l-10.2-35.8z"/><path d="m93.1 200.8h-7.4v-35.8h7.4z"/><path d="m105.4 189.7c.2 1.6.7 2.9 1.4 3.7 1.2 1.5 3.4 2.2 6.4 2.2 1.8 0 3.3-.2 4.4-.6 2.1-.7 3.2-2.1 3.2-4.1 0-1.2-.5-2.1-1.6-2.7-1-.6-2.7-1.2-5-1.7l-3.9-.8c-3.8-.8-6.4-1.8-7.8-2.7-2.4-1.6-3.6-4.2-3.6-7.7 0-3.2 1.2-5.9 3.5-8 2.4-2.1 5.8-3.2 10.4-3.2 3.8 0 7.1 1 9.8 3s4.1 4.9 4.2 8.7h-7.2c-.1-2.1-1.1-3.7-2.9-4.6-1.2-.6-2.7-.9-4.4-.9-2 0-3.5.4-4.7 1.2s-1.8 1.9-1.8 3.2.6 2.2 1.7 2.9c.7.4 2.3.9 4.7 1.5l6.3 1.5c2.7.6 4.8 1.5 6.2 2.6 2.1 1.7 3.2 4.1 3.2 7.3 0 3.3-1.3 6-3.8 8.1-2.5 2.2-6.1 3.2-10.7 3.2-4.7 0-8.4-1.1-11.1-3.2s-4-5-4-8.8h7.1z"/><path d="m138.5 189.7c.2 1.6.7 2.9 1.4 3.7 1.2 1.5 3.4 2.2 6.4 2.2 1.8 0 3.3-.2 4.4-.6 2.1-.7 3.2-2.1 3.2-4.1 0-1.2-.5-2.1-1.6-2.7-1-.6-2.7-1.2-5-1.7l-3.9-.8c-3.8-.8-6.4-1.8-7.8-2.7-2.4-1.6-3.6-4.2-3.6-7.7 0-3.2 1.2-5.9 3.5-8 2.4-2.1 5.8-3.2 10.4-3.2 3.8 0 7.1 1 9.8 3s4.1 4.9 4.2 8.7h-7.2c-.1-2.1-1.1-3.7-2.9-4.6-1.2-.6-2.7-.9-4.4-.9-2 0-3.5.4-4.7 1.2s-1.8 1.9-1.8 3.2.6 2.2 1.7 2.9c.7.4 2.3.9 4.7 1.5l6.3 1.5c2.7.6 4.8 1.5 6.2 2.6 2.1 1.7 3.2 4.1 3.2 7.3 0 3.3-1.3 6-3.8 8.1-2.5 2.2-6.1 3.2-10.7 3.2-4.7 0-8.4-1.1-11.1-3.2s-4-5-4-8.8h7.1z"/><path d="m4.5 239.6v-35.7h5.2l11.7 31.5h.1l11.5-31.5h5.1v35.7h-3.4v-31.9h-.1l-11.6 31.9h-3.2l-11.8-31.8h-.1v31.9h-3.4z"/><path d="m48.1 239.6 14-35.7h3.9l13.7 35.7h-3.5l-4.1-11.2h-16.3l-4.2 11.2zm8.8-14.1h14l-7-18.8z"/><path d="m91.8 239.6v-35.7h12.2c1 0 2 0 2.9.1 1 0 1.9.2 2.8.3.9.2 1.8.5 2.7.8.9.4 1.7.8 2.6 1.4 1.2.9 2.2 1.9 2.9 3.2s1.4 2.5 1.8 3.9.8 2.8.9 4.2.3 2.7.3 3.9-.1 2.4-.2 3.6-.4 2.4-.7 3.6-.8 2.3-1.3 3.4-1.2 2.1-2.1 3c-.8.9-1.7 1.7-2.7 2.2-1 .6-2 1-3.1 1.3s-2.2.5-3.4.6-2.3.2-3.5.2zm3.4-2.8h8.1c1.5 0 3-.1 4.3-.3s2.7-.6 4.1-1.4c1.2-.6 2.2-1.4 2.9-2.4.8-1 1.4-2.1 1.8-3.4.4-1.2.8-2.5.9-3.8.2-1.3.3-2.6.3-3.8 0-1.3-.1-2.6-.2-3.9-.2-1.3-.5-2.6-.9-3.8-.5-1.2-1.1-2.3-1.9-3.3s-1.8-1.8-3.1-2.5c-1.1-.6-2.3-.9-3.8-1.1s-2.9-.2-4.4-.2h-8.1z"/><path d="m136.8 239.6v-35.7h23.8v2.9h-20.4v12.9h18.4v2.9h-18.4v14.2h20.8v2.9h-24.2z"/><path d="m4.8 5v156h156v-156zm126.7 92.6h-34.1v34.1h-29.2v-34.1h-34.2v-29.2h34.1v-34.2h29.2v34.1h34.1v29.3z" fill="#e62325"/></svg>