<svg enable-background="new 0 0 700 206.1" height="206.1" viewBox="0 0 700 206.1" width="700" xmlns="http://www.w3.org/2000/svg"><g fill="#f7d917"><path d="m311.8 17.5h-14.7v-16.7h49.1v16.6h-14.7v58.6h-19.6v-58.5z"/><path d="m349.8.8h19.6v75.2h-19.6z"/><path d="m387.9 17.5h-14.7v-16.7h49.1v16.6h-14.7v58.6h-19.6v-58.5z"/><path d="m433.1.8h24.6l18.4 75.2h-20.8l-2-13.2h-15.6l-2 13.2h-20.8zm12.4 15.4h-.2l-5.3 31.9h10.9z"/><path d="m479.3.8h21.9l12.6 46.3h.2v-46.3h18.3v75.2h-21.5l-13.1-46.4h-.2v46.4h-18.3v-75.2z"/><path d="m540.9.8h19.6v75.2h-19.6z"/><path d="m587.8.8v54.2c0 7.3 2.2 9.2 5.9 9.2s5.9-1.9 5.9-9.2v-54.2h19.6v49.3c0 21.1-9.1 27.4-25.5 27.4s-25.5-6.3-25.5-27.4v-49.3z"/><path d="m626.8.8h28l7.9 44.5h.2l7.9-44.5h28v75.2h-18.3v-56h-.2l-10.4 56h-14.1l-10.4-56h-.2v56h-18.3v-75.2z"/><path d="m297.1 81.1h19.3l11.1 40.9h.2v-40.9h16.2v66.3h-19l-11.5-41h-.2v41h-16.2v-66.3z"/><path d="m350.8 81.1h39.3v14.1h-22v11.3h20.6v13.6h-20.6v13.2h22.9v14.1h-40.1v-66.3z"/><path d="m421.5 79.8c17.7 0 23.7 9.7 23.7 34.5s-6 34.5-23.7 34.5-23.7-9.7-23.7-34.5 6.1-34.5 23.7-34.5zm0 57.2c5.3 0 5.9-4.8 5.9-22.8s-.6-22.8-5.9-22.8-5.9 4.8-5.9 22.8.6 22.8 5.9 22.8z"/><path d="m452.1 81.1h25.9c13.2 0 19.1 8.8 19.1 20.4 0 13.6-7.7 20.6-21.7 20.6h-6v25.3h-17.3zm17.3 28.6h3.3c4.4 0 6.7-2.5 6.7-8.1 0-5.5-2.3-8.1-6.7-8.1h-3.3z"/><path d="m504 81.1h27c13.2 0 18.2 7.4 18.2 17.7 0 8.8-3.4 14.6-11.3 15.8v.2c8.4.7 10.9 6 10.9 14.9v5.7c0 3.4 0 7.9.8 9.2.5.7.8 1.5 2 2v.9h-18.4c-1.7-3.5-1.7-9.8-1.7-12.6v-4.5c0-7.5-1.5-9.5-5.7-9.5h-4.6v26.6h-17.2zm17.3 28h3.4c4.9 0 7.2-3.2 7.2-7.9 0-5.4-2.1-7.7-7.3-7.7h-3.3z"/><path d="m558.5 81.1h39.3v14.1h-22v11.3h20.6v13.6h-20.6v13.2h22.9v14.1h-40.1v-66.3z"/><path d="m605.5 81.1h19.3l11.2 40.9h.2v-40.9h16.2v66.3h-19l-11.5-41h-.2v41h-16.2z"/><path d="m659.2 81.1h39.3v14.1h-22v11.3h20.6v13.6h-20.6v13.2h22.9v14.1h-40.1v-66.3z"/><path d="m307.7 164.3h-10.5v-11.9h35v11.9h-10.5v41.7h-14z"/><path d="m335.3 152.4h21.8c10.7 0 14.7 6 14.7 14.3 0 7.1-2.8 11.8-9.2 12.8v.2c6.8.6 8.8 4.9 8.8 12v4.6c0 2.8 0 6.4.7 7.4.4.6.7 1.2 1.6 1.7v.8h-14.9c-1.4-2.9-1.4-8-1.4-10.2v-3.6c0-6.1-1.2-7.7-4.6-7.7h-3.7v21.3h-14v-53.6zm14 22.7h2.8c4 0 5.9-2.6 5.9-6.4 0-4.4-1.7-6.2-5.9-6.2h-2.7v12.6z"/><path d="m377.9 152.4h14v53.6h-14z"/><path d="m397.9 152.4h14v42.2h17.2v11.4h-31.2z"/><path d="m441.5 152.4h17.5l13.1 53.6h-14.9l-1.4-9.4h-11.1l-1.4 9.4h-14.9zm8.8 11h-.2l-3.8 22.7h7.8z"/><path d="m473.9 152.4h20l5.6 31.8h.2l5.6-31.8h20v53.6h-13.1v-39.9h-.2l-7.4 39.9h-10.1l-7.4-39.9h-.2v39.9h-13.1v-53.6z"/><path d="m530.8 152.4h14v53.6h-14z"/><path d="m550.8 152.4h15.6l9 33h.2v-33h13.1v53.6h-15.3l-9.3-33.1h-.2v33.1h-13.1z"/><path d="m604.1 152.4h17.6l13.1 53.6h-14.9l-1.4-9.4h-11.1l-1.4 9.4h-15zm8.8 11h-.2l-3.8 22.7h7.8z"/><path d="m639.9 164.3h-10.5v-11.9h35v11.9h-10.5v41.7h-14z"/><path d="m667.6 152.4h31.8v11.4h-17.8v9.2h16.7v11h-16.7v10.7h18.4v11.3h-32.4z"/><path d="m158.8 107.9-1.3-24.3v-33.9h33.5v106.6h-32.7l-38-58 1.3 24.3v33.8h-33.5v-106.7h32.7z"/><path d="m97.7 28h-31.4v128.3h-34.9v-128.3h-31.4v-28h97.7z"/><path d="m181.2 178h31.4v-128.3h34.9v128.3h31.4v28h-97.7z"/><path d="m0 49.7h8.5v106.5h-8.5z"/><path d="m278.9 156.3h-8.4v-147.8h-151v-8.5h159.4z"/><path d="m31.4 28h34.9v128.3h-34.9z"/><path d="m0 49.7h8.5v147.9h151v8.5h-159.5z"/></g></svg>