<!-- Generator: Adobe Illustrator 19.0.1, SVG Export Plug-In  -->
<svg version="1.1"
	 xmlns="http://www.w3.org/2000/svg" xmlns:xlink="http://www.w3.org/1999/xlink" xmlns:a="http://ns.adobe.com/AdobeSVGViewerExtensions/3.0/"
	 x="0px" y="0px" width="700px" height="206.1px" viewBox="0 0 700 206.1" style="enable-background:new 0 0 700 206.1;"
	 xml:space="preserve">
<style type="text/css">
	.st0{fill:#f7d917;}
</style>
<defs>
</defs>
<g>
	<path class="st0" d="M311.8,17.5h-14.7V0.8h49.1v16.6h-14.7V76h-19.6V17.5z"/>
	<path class="st0" d="M349.8,0.8h19.6V76h-19.6V0.8z"/>
	<path class="st0" d="M387.9,17.5h-14.7V0.8h49.1v16.6h-14.7V76h-19.6V17.5z"/>
	<path class="st0" d="M433.1,0.8h24.6L476.1,76h-20.8l-2-13.2h-15.6l-2,13.2h-20.8L433.1,0.8z M445.5,16.2h-0.2L440,48.1h10.9
		L445.5,16.2z"/>
	<path class="st0" d="M479.3,0.8h21.9l12.6,46.3h0.2V0.8h18.3V76h-21.5l-13.1-46.4h-0.2V76h-18.3V0.8z"/>
	<path class="st0" d="M540.9,0.8h19.6V76h-19.6V0.8z"/>
	<path class="st0" d="M587.8,0.8v54.2c0,7.3,2.2,9.2,5.9,9.2c3.7,0,5.9-1.9,5.9-9.2V0.8h19.6v49.3c0,21.1-9.1,27.4-25.5,27.4
		c-16.4,0-25.5-6.3-25.5-27.4V0.8H587.8z"/>
	<path class="st0" d="M626.8,0.8h28l7.9,44.5h0.2l7.9-44.5h28V76h-18.3V20h-0.2l-10.4,56h-14.1l-10.4-56h-0.2v56h-18.3V0.8z"/>
</g>
<g>
	<path class="st0" d="M297.1,81.1h19.3l11.1,40.9h0.2V81.1h16.2v66.3h-19l-11.5-41h-0.2v41h-16.2V81.1z"/>
	<path class="st0" d="M350.8,81.1h39.3v14.1h-22v11.3h20.6v13.6h-20.6v13.2h22.9v14.1h-40.1V81.1z"/>
	<path class="st0" d="M421.5,79.8c17.7,0,23.7,9.7,23.7,34.5s-6,34.5-23.7,34.5c-17.7,0-23.7-9.7-23.7-34.5S403.9,79.8,421.5,79.8z
		 M421.5,137c5.3,0,5.9-4.8,5.9-22.8s-0.6-22.8-5.9-22.8c-5.3,0-5.9,4.8-5.9,22.8S416.2,137,421.5,137z"/>
	<path class="st0" d="M452.1,81.1H478c13.2,0,19.1,8.8,19.1,20.4c0,13.6-7.7,20.6-21.7,20.6h-6v25.3h-17.3V81.1z M469.4,109.7h3.3
		c4.4,0,6.7-2.5,6.7-8.1c0-5.5-2.3-8.1-6.7-8.1h-3.3V109.7z"/>
	<path class="st0" d="M504,81.1h27c13.2,0,18.2,7.4,18.2,17.7c0,8.8-3.4,14.6-11.3,15.8v0.2c8.4,0.7,10.9,6,10.9,14.9v5.7
		c0,3.4,0,7.9,0.8,9.2c0.5,0.7,0.8,1.5,2,2v0.9h-18.4c-1.7-3.5-1.7-9.8-1.7-12.6v-4.5c0-7.5-1.5-9.5-5.7-9.5h-4.6v26.6H504V81.1z
		 M521.3,109.1h3.4c4.9,0,7.2-3.2,7.2-7.9c0-5.4-2.1-7.7-7.3-7.7h-3.3V109.1z"/>
	<path class="st0" d="M558.5,81.1h39.3v14.1h-22v11.3h20.6v13.6h-20.6v13.2h22.9v14.1h-40.1V81.1z"/>
	<path class="st0" d="M605.5,81.1h19.3L636,122h0.2V81.1h16.2v66.3h-19l-11.5-41h-0.2v41h-16.2V81.1z"/>
	<path class="st0" d="M659.2,81.1h39.3v14.1h-22v11.3h20.6v13.6h-20.6v13.2h22.9v14.1h-40.1V81.1z"/>
</g>
<g>
	<path class="st0" d="M307.7,164.3h-10.5v-11.9h35v11.9h-10.5V206h-14V164.3z"/>
	<path class="st0" d="M335.3,152.4h21.8c10.7,0,14.7,6,14.7,14.3c0,7.1-2.8,11.8-9.2,12.8v0.2c6.8,0.6,8.8,4.9,8.8,12v4.6
		c0,2.8,0,6.4,0.7,7.4c0.4,0.6,0.7,1.2,1.6,1.7v0.8h-14.9c-1.4-2.9-1.4-8-1.4-10.2v-3.6c0-6.1-1.2-7.7-4.6-7.7h-3.7V206h-14V152.4z
		 M349.3,175.1h2.8c4,0,5.9-2.6,5.9-6.4c0-4.4-1.7-6.2-5.9-6.2h-2.7V175.1z"/>
	<path class="st0" d="M377.9,152.4h14V206h-14V152.4z"/>
	<path class="st0" d="M397.9,152.4h14v42.2h17.2V206h-31.2V152.4z"/>
	<path class="st0" d="M441.5,152.4H459l13.1,53.6h-14.9l-1.4-9.4h-11.1l-1.4,9.4h-14.9L441.5,152.4z M450.3,163.4h-0.2l-3.8,22.7
		h7.8L450.3,163.4z"/>
	<path class="st0" d="M473.9,152.4h20l5.6,31.8h0.2l5.6-31.8h20V206h-13.1v-39.9H512l-7.4,39.9h-10.1l-7.4-39.9h-0.2V206h-13.1
		V152.4z"/>
	<path class="st0" d="M530.8,152.4h14V206h-14V152.4z"/>
	<path class="st0" d="M550.8,152.4h15.6l9,33h0.2v-33h13.1V206h-15.3l-9.3-33.1h-0.2V206h-13.1V152.4z"/>
	<path class="st0" d="M604.1,152.4h17.6l13.1,53.6h-14.9l-1.4-9.4h-11.1l-1.4,9.4H591L604.1,152.4z M612.9,163.4h-0.2l-3.8,22.7h7.8
		L612.9,163.4z"/>
	<path class="st0" d="M639.9,164.3h-10.5v-11.9h35v11.9h-10.5V206h-14V164.3z"/>
	<path class="st0" d="M667.6,152.4h31.8v11.4h-17.8v9.2h16.7v11h-16.7v10.7H700V206h-32.4V152.4z"/>
</g>
<g>
	<path class="st0" d="M158.8,107.9l-1.3-24.3V49.7H191v106.6h-32.7l-38-58l1.3,24.3v33.8H88.1V49.7h32.7L158.8,107.9z"/>
</g>
<g>
	<path class="st0" d="M97.7,28H66.3v128.3H31.4V28H0L0,0l97.7,0V28z"/>
</g>
<g>
	<path class="st0" d="M181.2,178h31.4V49.7h34.9V178h31.4v28h-97.7V178z"/>
</g>
<rect x="0" y="49.7" class="st0" width="8.5" height="106.5"/>
<polygon class="st0" points="278.9,156.3 270.5,156.3 270.5,8.5 119.5,8.5 119.5,0 278.9,0 "/>
<rect x="31.4" y="28" class="st0" width="34.9" height="128.3"/>
<polygon class="st0" points="0,49.7 8.5,49.7 8.5,197.6 159.5,197.6 159.5,206.1 0,206.1 "/>
</svg>
