<svg enable-background="new 0 0 700 143.1" height="143.1" viewBox="0 0 700 143.1" width="700" xmlns="http://www.w3.org/2000/svg"><path d="m271.3 90.1 13.5 2.1v-4.4l-13.5 2.2z" fill="none"/><g fill="#f7d917"><path d="m286.1 122.5h-2.4v7.5c6 0 7.8.5 7.8 2.3 0 2.3-2.3 2.6-10.9 2.6s-10.9-.3-10.9-2.6c0-1.5 1.1-2.1 4.7-2.1h1.8v-7.6h-2c-6.1 0-10.1 2.6-10.1 9.7 0 8.1 4.4 10.7 16.5 10.7 11.9 0 16.5-1.9 16.5-10.7.1-4.9-2.1-9.8-11-9.8z"/><path d="m289.8 111.7h-25v7.8h31.8v-17.2-.2-8.1l-5.6-.8v-6.2l5.6-.8v-8.3l-31.8 7.3v9.8l31 7.1h-6zm-5-19.5-13.5-2.1v-.1l13.5-2.1z"/><path d="m287.4 56.5c-11.6 0-8.5 12.8-14.8 12.8-1.4 0-2.8-.8-2.8-2.4 0-1.5 1.5-2.2 3.4-2.2h.8v-7.3c-6.8 0-9.8 2.9-9.8 9.7 0 6.6 3.5 9.8 9.9 9.8 11.3 0 8.1-12.2 14.4-12.2 1.7 0 3.1.9 3.1 2.5 0 1.5-1 2.6-3.7 2.6h-.8v7.5h1.1c6.6 0 8.9-3.6 8.9-10.1.1-6.9-3-10.7-9.7-10.7z"/><path d="m287.4 33.8c-11.6 0-8.5 12.8-14.8 12.8-1.4 0-2.8-.8-2.8-2.4 0-1.5 1.5-2.2 3.4-2.2h.8v-7.3c-6.8 0-9.8 2.9-9.8 9.7 0 6.6 3.5 9.8 9.9 9.8 11.3 0 8.1-12.2 14.4-12.2 1.7 0 3.1.9 3.1 2.5 0 1.5-1 2.6-3.7 2.6h-.8v7.6h1.1c6.6 0 8.9-3.6 8.9-10.1.1-7.1-3-10.8-9.7-10.8z"/><path d="m264.8 23.3h31.8v7.8h-31.8z"/><path d="m286.1 0h-2.4v7.5c6 0 7.8.5 7.8 2.3 0 2.3-2.3 2.6-10.9 2.6s-10.9-.3-10.9-2.6c0-1.5 1.1-2.1 4.7-2.1h1.8v-7.5h-2c-6.1 0-10.1 2.6-10.1 9.7 0 8.1 4.4 10.7 16.5 10.7 11.9 0 16.5-1.9 16.5-10.7.1-5-2.1-9.9-11-9.9z"/><path d="m308.2 0h33v44h-33z"/><path d="m341.2 66h-33v77.1h105.6v-33h-72.6z"/><path d="m424.8 66h33v77h-33z"/><path d="m512.9 0c-44 0-44 0-44 0s-44 0-44 44h33s0-11 11-11h44s11 0 11 11v22h-44v33h44v44h33v-99s0-44-44-44z"/><path d="m634 44-66.1-44v22 11l66.1 44 66-44v-11-22z"/><path d="m567.9 143.1h33v-55l-33-22.1z"/><path d="m667 143.1h33v-77.1l-33 22.1z"/><path d="m0 33h44v11h33v-11h44.1v-33h-121.1z"/><path d="m44 66h33v77h-33z"/><path d="m143.1 66h-11v22.1 55h33v-46.3l-6.3-8.7z"/><path d="m219.8 96.4 33.4 46.7h-44l-54.2-77h48.7c9.1 0 16.5-7.4 16.5-16.5s-7.4-16.5-16.5-16.5h-46.7c-13.6 0-24.8 0-24.8 0v-33.1h71.5c27.4 0 49.5 22.2 49.5 49.5-.1 21.7-14 40.2-33.4 46.9z"/></g></svg>