<!-- Generator: Adobe Illustrator 19.0.1, SVG Export Plug-In  -->
<svg version="1.1"
	 xmlns="http://www.w3.org/2000/svg" xmlns:xlink="http://www.w3.org/1999/xlink" xmlns:a="http://ns.adobe.com/AdobeSVGViewerExtensions/3.0/"
	 x="0px" y="0px" width="700px" height="173.4px" viewBox="0 0 700 173.4" style="enable-background:new 0 0 700 173.4;"
	 xml:space="preserve">
<style type="text/css">
	.st0{fill:#f7d917;}
	.st1{fill:none;}
</style>
<defs>
</defs>
<g>
	<path class="st0" d="M609.5,111.7h24.9c12.2,0,16.8,6.8,16.8,16.3c0,8.2-3.2,13.4-10.4,14.5v0.2c7.6,0.7,10,5.6,10,13.7v5.2
		c0,3.2,0,7.2,0.8,8.5c0.4,0.7,0.8,1.3,1.8,1.9v0.9h-16.9c-1.5-3.2-1.5-9.2-1.5-11.6V157c0-6.9-1.4-8.7-5.2-8.7h-4.2v24.5h-15.9
		V111.7z M625.4,137.5h3.2c4.5,0,6.7-2.9,6.7-7.3c0-5-2-7.1-6.8-7.1h-3.1V137.5z"/>
	<path class="st0" d="M678.6,111.1c15.9,0,21.4,8.7,21.4,31.1c0,22.4-5.5,31.1-21.4,31.1c-15.9,0-21.4-8.7-21.4-31.1
		C657.2,119.8,662.7,111.1,678.6,111.1z M678.6,162.8c4.7,0,5.3-4.4,5.3-20.6c0-16.2-0.6-20.6-5.3-20.6c-4.7,0-5.3,4.4-5.3,20.6
		C673.3,158.4,673.9,162.8,678.6,162.8z"/>
	<path class="st1" d="M613.1,74.5c11.4,0,17.4-6.5,17.4-21c0-14-5.8-21-17.4-21h-8.5v42.1H613.1z"/>
	<path class="st0" d="M627.1,0h-22.5h-45H0v32.4h33.9v140.3h45V32.4h480.8h45h8.5c11.6,0,17.4,7,17.4,21c0,14.5-6,21-17.4,21h-8.5
		h-45v98.2h45v-65.8h15.7c36.8,0,56.6-18.1,56.6-53.7C677,23.2,661.5,0,627.1,0z"/>
	<path class="st0" d="M94.1,46.6h51.4c25.1,0,34.6,14.1,34.6,33.6c0,17-6.5,27.7-21.5,30v0.4c15.7,1.4,20.7,11.5,20.7,28.3v10.8
		c0,6.5,0,14.8,1.6,17.5c0.9,1.4,1.6,2.7,3.7,3.9v1.8h-35c-3.2-6.5-3.2-18.9-3.2-24v-8.5c0-14.3-2.8-18-10.8-18h-8.7v50.5H94.1V46.6
		z M126.9,100h6.5c9.4,0,13.8-6,13.8-15c0-10.4-4.1-14.7-14-14.7h-6.4V100z"/>
	<path class="st0" d="M195.1,46.6h32.9v126.1h-32.9V46.6z"/>
	<path class="st0" d="M240.4,46.6h32.9v99.3h40.4v26.8h-73.3V46.6z"/>
	<path class="st0" d="M346.5,46.6h41.3l30.7,126.1h-35l-3.4-22.1H354l-3.4,22.1h-35L346.5,46.6z M367.3,72.4h-0.4l-9,53.5h18.4
		L367.3,72.4z"/>
	<path class="st0" d="M423.6,46.6h47l13.2,74.7h0.4l13.2-74.7h47v126.1h-30.7v-94h-0.4l-17.5,94h-23.7l-17.5-94h-0.4v94h-30.7V46.6z
		"/>
</g>
</svg>
