<svg enable-background="new 0 0 700 173.4" height="173.4" viewBox="0 0 700 173.4" width="700" xmlns="http://www.w3.org/2000/svg"><path d="m609.5 111.7h24.9c12.2 0 16.8 6.8 16.8 16.3 0 8.2-3.2 13.4-10.4 14.5v.2c7.6.7 10 5.6 10 13.7v5.2c0 3.2 0 7.2.8 8.5.4.7.8 1.3 1.8 1.9v.9h-16.9c-1.5-3.2-1.5-9.2-1.5-11.6v-4.3c0-6.9-1.4-8.7-5.2-8.7h-4.2v24.5h-15.9v-61.1zm15.9 25.8h3.2c4.5 0 6.7-2.9 6.7-7.3 0-5-2-7.1-6.8-7.1h-3.1z" fill="#f7d917"/><path d="m678.6 111.1c15.9 0 21.4 8.7 21.4 31.1s-5.5 31.1-21.4 31.1-21.4-8.7-21.4-31.1 5.5-31.1 21.4-31.1zm0 51.7c4.7 0 5.3-4.4 5.3-20.6s-.6-20.6-5.3-20.6-5.3 4.4-5.3 20.6.6 20.6 5.3 20.6z" fill="#f7d917"/><path d="m613.1 74.5c11.4 0 17.4-6.5 17.4-21 0-14-5.8-21-17.4-21h-8.5v42.1h8.5z" fill="none"/><g fill="#f7d917"><path d="m627.1 0h-22.5-45-559.6v32.4h33.9v140.3h45v-140.3h480.8 45 8.5c11.6 0 17.4 7 17.4 21 0 14.5-6 21-17.4 21h-8.5-45v98.2h45v-65.8h15.7c36.8 0 56.6-18.1 56.6-53.7 0-29.9-15.5-53.1-49.9-53.1z"/><path d="m94.1 46.6h51.4c25.1 0 34.6 14.1 34.6 33.6 0 17-6.5 27.7-21.5 30v.4c15.7 1.4 20.7 11.5 20.7 28.3v10.8c0 6.5 0 14.8 1.6 17.5.9 1.4 1.6 2.7 3.7 3.9v1.8h-35c-3.2-6.5-3.2-18.9-3.2-24v-8.5c0-14.3-2.8-18-10.8-18h-8.7v50.5h-32.8zm32.8 53.4h6.5c9.4 0 13.8-6 13.8-15 0-10.4-4.1-14.7-14-14.7h-6.4v29.7z"/><path d="m195.1 46.6h32.9v126.1h-32.9z"/><path d="m240.4 46.6h32.9v99.3h40.4v26.8h-73.3z"/><path d="m346.5 46.6h41.3l30.7 126.1h-35l-3.4-22.1h-26.1l-3.4 22.1h-35zm20.8 25.8h-.4l-9 53.5h18.4z"/><path d="m423.6 46.6h47l13.2 74.7h.4l13.2-74.7h47v126.1h-30.7v-94h-.4l-17.5 94h-23.7l-17.5-94h-.4v94h-30.7v-126.1z"/></g></svg>