<!-- Generator: Adobe Illustrator 19.0.1, SVG Export Plug-In  -->
<svg version="1.1"
	 xmlns="http://www.w3.org/2000/svg" xmlns:xlink="http://www.w3.org/1999/xlink" xmlns:a="http://ns.adobe.com/AdobeSVGViewerExtensions/3.0/"
	 x="0px" y="0px" width="700px" height="143.1px" viewBox="0 0 700 143.1" style="enable-background:new 0 0 700 143.1;"
	 xml:space="preserve">
<style type="text/css">
	.st0{fill:none;}
	.st1{fill:#f7d917;}
</style>
<defs>
</defs>
<polygon class="st0" points="271.3,90.1 284.8,92.2 284.8,87.8 271.3,90 "/>
<path class="st1" d="M286.1,122.5h-2.4v7.5c6,0,7.8,0.5,7.8,2.3c0,2.3-2.3,2.6-10.9,2.6c-8.6,0-10.9-0.3-10.9-2.6
	c0-1.5,1.1-2.1,4.7-2.1h1.8v-7.6h-2c-6.1,0-10.1,2.6-10.1,9.7c0,8.1,4.4,10.7,16.5,10.7c11.9,0,16.5-1.9,16.5-10.7
	C297.2,127.4,295,122.5,286.1,122.5z"/>
<path class="st1" d="M289.8,111.7h-25v7.8h31.8v-17.2v-0.2v-8.1l-5.6-0.8v-6.2l5.6-0.8v-8.3l-31.8,7.3v9.8l31,7.1h-6V111.7z
	 M284.8,92.2l-13.5-2.1V90l13.5-2.1V92.2z"/>
<path class="st1" d="M287.4,56.5c-11.6,0-8.5,12.8-14.8,12.8c-1.4,0-2.8-0.8-2.8-2.4c0-1.5,1.5-2.2,3.4-2.2h0.8v-7.3
	c-6.8,0-9.8,2.9-9.8,9.7c0,6.6,3.5,9.8,9.9,9.8c11.3,0,8.1-12.2,14.4-12.2c1.7,0,3.1,0.9,3.1,2.5c0,1.5-1,2.6-3.7,2.6h-0.8v7.5h1.1
	c6.6,0,8.9-3.6,8.9-10.1C297.2,60.3,294.1,56.5,287.4,56.5z"/>
<path class="st1" d="M287.4,33.8c-11.6,0-8.5,12.8-14.8,12.8c-1.4,0-2.8-0.8-2.8-2.4c0-1.5,1.5-2.2,3.4-2.2h0.8v-7.3
	c-6.8,0-9.8,2.9-9.8,9.7c0,6.6,3.5,9.8,9.9,9.8c11.3,0,8.1-12.2,14.4-12.2c1.7,0,3.1,0.9,3.1,2.5c0,1.5-1,2.6-3.7,2.6h-0.8v7.6h1.1
	c6.6,0,8.9-3.6,8.9-10.1C297.2,37.5,294.1,33.8,287.4,33.8z"/>
<rect x="264.8" y="23.3" class="st1" width="31.8" height="7.8"/>
<path class="st1" d="M286.1,0h-2.4v7.5c6,0,7.8,0.5,7.8,2.3c0,2.3-2.3,2.6-10.9,2.6c-8.6,0-10.9-0.3-10.9-2.6c0-1.5,1.1-2.1,4.7-2.1
	h1.8V0.2h-2c-6.1,0-10.1,2.6-10.1,9.7c0,8.1,4.4,10.7,16.5,10.7c11.9,0,16.5-1.9,16.5-10.7C297.2,4.9,295,0,286.1,0z"/>
<rect x="308.2" y="0" class="st1" width="33" height="44"/>
<polygon class="st1" points="341.2,66 308.2,66 308.2,143.1 413.8,143.1 413.8,110.1 341.2,110.1 "/>
<rect x="424.8" y="66" class="st1" width="33" height="77"/>
<path class="st1" d="M512.9,0c-44,0-44,0-44,0s-44,0-44,44h33c0,0,0-11,11-11c11,0,44,0,44,0s11,0,11,11v22h-44v33h44v44h33V44
	C556.9,44,556.9,0,512.9,0z"/>
<polygon class="st1" points="634,44 567.9,0 567.9,22 567.9,33 634,77 700,33 700,22 700,0 "/>
<polygon class="st1" points="567.9,143.1 600.9,143.1 600.9,88.1 567.9,66 "/>
<polygon class="st1" points="667,143.1 700,143.1 700,66 667,88.1 "/>
<polygon class="st1" points="0,33 44,33 44,44 77,44 77,33 121.1,33 121.1,0 0,0 "/>
<rect x="44" y="66" class="st1" width="33" height="77"/>
<polygon class="st1" points="143.1,66 132.1,66 132.1,88.1 132.1,143.1 165.1,143.1 165.1,96.8 158.8,88.1 "/>
<g>
	<path class="st1" d="M219.8,96.4l33.4,46.7h-44l-54.2-77h48.7c9.1,0,16.5-7.4,16.5-16.5c0-9.1-7.4-16.5-16.5-16.5h-46.7
		c-13.6,0-24.8,0-24.8,0V0h71.5c27.4,0,49.5,22.2,49.5,49.5C253.1,71.2,239.2,89.7,219.8,96.4z"/>
</g>
</svg>
